<?xml version="1.0" encoding="UTF-8"?>
<svg width="68px" height="41px" viewBox="0 0 68 41" version="1.1" xmlns="http://www.w3.org/2000/svg" xmlns:xlink="http://www.w3.org/1999/xlink">
    <!-- Generator: Sketch 50.2 (55047) - http://www.bohemiancoding.com/sketch -->
    <title>heart-icon-red-double</title>
    <desc>Created with Sketch.</desc>
    <defs></defs>
    <g id="vilagszep-screens" stroke="none" stroke-width="1" fill="none" fill-rule="evenodd">
        <g id="vilagszep-desktop" transform="translate(-542.000000, -1855.000000)" stroke="#B3424D" stroke-width="3">
            <g id="Group-4" transform="translate(542.000000, 1855.000000)">
                <g id="🔹Icon-Copy" transform="translate(23.000000, 2.000000)">
                    <path d="M31.5956522,3.8813098e-06 C27.3550389,0.000540381254 23.465502,2.33122009 21.5,6.04950325 C19.0618533,1.45761318 13.7743396,-0.898239474 8.68370978,0.339198571 C3.59307346,1.57663662 0.0105078913,6.08863999 0,11.2757527 C0,17.501002 3.9073913,23.1897514 8.95521739,27.861001 C12.8494563,31.2758139 17.0481913,34.3346313 21.5,37 C25.9184183,34.285523 30.1130776,31.2296749 34.0447733,27.861001 C39.6534783,22.7920015 43,17.501002 43,11.2757527 C43,5.044711 37.8925815,-0.00511044315 31.5956522,3.8813098e-06 Z" id="Page-1"></path>
                </g>
                <g id="🔹Icon-Copy-2" transform="translate(2.000000, 2.000000)">
                    <path d="M31.5956522,3.8813098e-06 C27.3550389,0.000540381254 23.465502,2.33122009 21.5,6.04950325 C19.0618533,1.45761318 13.7743396,-0.898239474 8.68370978,0.339198571 C3.59307346,1.57663662 0.0105078913,6.08863999 0,11.2757527 C0,17.501002 3.9073913,23.1897514 8.95521739,27.861001 C12.8494563,31.2758139 17.0481913,34.3346313 21.5,37 C25.9184183,34.285523 30.1130776,31.2296749 34.0447733,27.861001 C39.6534783,22.7920015 43,17.501002 43,11.2757527 C43,5.044711 37.8925815,-0.00511044315 31.5956522,3.8813098e-06 Z" id="Page-1"></path>
                </g>
            </g>
        </g>
    </g>
</svg>