<?xml version="1.0" encoding="UTF-8"?>
<svg width="168px" height="110px" viewBox="0 0 168 110" version="1.1" xmlns="http://www.w3.org/2000/svg" xmlns:xlink="http://www.w3.org/1999/xlink">
    <!-- Generator: Sketch 50.2 (55047) - http://www.bohemiancoding.com/sketch -->
    <title>brand-spiral</title>
    <desc>Created with Sketch.</desc>
    <defs></defs>
    <g id="brand-spiral" stroke="none" stroke-width="1" fill="none" fill-rule="evenodd">
        <path d="M50.6823545,29.2485071 L50.4049923,28.3550923 C50.1086053,27.8056071 49.4136979,26.8981543 48.2371615,26.8239538 C46.9464761,26.7597803 45.2632781,27.2721652 44.0627104,28.8002956 C42.7860433,30.2692661 42.5887857,32.6436839 43.6021089,35.0361505 C44.5002818,37.4055548 46.6991531,39.4621134 49.6980692,39.8170728 C52.7200153,40.1920865 56.124461,39.4059617 58.918109,37.2140371 C61.6877256,35.0802698 63.8555564,31.6239276 64.3441945,27.7985881 C64.6556012,23.8469071 63.6853342,19.5914049 61.5235112,15.7289652 C59.4117536,11.86452 56.0083093,8.58365212 51.7908019,6.65343494 C47.4701599,4.74527739 42.7219596,4.36525022 37.4901277,5.19148344 C27.5751805,6.62235093 17.6081653,12.909344 11.9297502,22.2746575 C9.05399499,26.9382627 7.37780617,32.3709467 6.90218509,37.9620589 C6.7569955,39.4901893 6.68289874,40.5721136 6.77501904,42.1914906 C6.78803604,43.750705 6.84110534,45.2848517 7.06539822,46.6014102 C7.32573818,49.3167495 7.97758939,52.2546904 8.74258835,55.0632818 C11.8726757,66.3858856 18.7035957,76.8150746 27.7023465,84.4386805 C36.8092386,91.9610125 48.0549235,96.6857831 59.6520674,98.0043471 C71.4514754,99.6457837 82.7662506,98.3161899 93.629436,95.1746988 C104.461581,92.2337497 114.188282,87.1008761 122.821556,81.4265389 C131.368717,75.5917682 138.576129,68.720195 144.19046,61.5588386 C149.853856,54.4225499 154.288647,47.2020336 157.319604,40.3374794 C160.388612,33.490974 162.34717,27.182924 163.774033,21.9076656 C165.064718,16.6013231 165.736596,12.3337884 166.170162,9.40888263 C166.552661,6.46793355 166.762936,4.90671374 166.762936,4.90671374 L167.80029,4.92576523 C167.80029,4.92576523 167.856364,6.52007448 167.967509,9.51416721 C168.084662,12.5222979 167.887404,16.9322174 167.336685,22.5604299 C166.694847,28.172599 165.416177,34.9940367 162.79175,42.5103525 C160.217389,50.0286737 156.480509,58.3611957 150.755032,66.4600862 C145.097645,74.568001 137.662936,82.5154822 128.602104,89.4602532 C119.561299,96.4451327 108.592976,101.950012 96.5872985,105.551747 C90.565435,107.296463 84.2351687,108.359336 77.769726,108.80855 C74.6015889,108.997059 71.1671041,109.074268 67.8858193,108.910826 C64.9049267,108.783482 61.3322615,108.276111 58.1711336,107.756707 C45.0940571,105.750284 32.2442775,99.7911767 22.2001616,90.758763 C12.1950967,81.6832328 4.9226001,69.747973 1.79151143,56.9062632 C1.02250724,53.6735254 0.402697877,50.5009503 0.179406297,47.0506244 C-0.0208552106,45.3029005 -0.0138460578,43.7567213 0.0151918607,42.2366126 C-0.032870901,40.7796747 0.105309539,38.8033328 0.318588044,37.2912458 C1.07157131,30.7415426 3.26743874,24.3903761 6.80005173,19.040917 C13.8772934,8.29186345 25.2871928,1.47343393 36.9664439,0.249124752 C42.4866523,-0.421688387 48.6647198,0.212024474 53.6432209,2.76392199 C58.6647782,5.31080596 62.5208135,9.42693142 64.778762,13.9972846 C67.0827706,18.5024616 68.0179919,23.5811889 67.432227,28.2267454 C66.6201666,33.0026542 63.8835931,36.8981834 60.4871579,39.3357719 C57.078707,41.8054472 52.8832285,42.6166398 49.329588,41.9859351 C45.6067266,41.3823035 42.8491256,38.5005143 41.9629685,35.6518146 C40.906589,32.8913533 41.255044,29.6907023 42.938242,27.8757968 C44.4852622,26.0047395 46.731195,25.3920836 48.3503093,25.5505118 C52.0621563,26.5060946 51.6596307,29.4831413 51.7197091,29.1993743 L50.6823545,29.2485071 Z" id="Fill-2" fill="#FFFFFF"></path>
    </g>
</svg>