<?xml version="1.0" encoding="UTF-8"?>
<svg width="403px" height="413px" viewBox="0 0 403 413" version="1.1" xmlns="http://www.w3.org/2000/svg" xmlns:xlink="http://www.w3.org/1999/xlink">
    <!-- Generator: Sketch 50.2 (55047) - http://www.bohemiancoding.com/sketch -->
    <title>brand/white</title>
    <desc>Created with Sketch.</desc>
    <defs></defs>
    <g id="brand/white" stroke="none" stroke-width="1" fill="none" fill-rule="evenodd">
        <g id="brand" transform="translate(0.000000, 0.673000)" fill="#FFFFFF">
            <path d="M176.1357,30.1528 L175.8587,29.2618 C175.5627,28.7138 174.8687,27.8088 173.6937,27.7348 C172.4047,27.6708 170.7237,28.1818 169.5247,29.7058 C168.2497,31.1708 168.0527,33.5388 169.0647,35.9248 C169.9617,38.2878 172.1577,40.3388 175.1527,40.6928 C178.1707,41.0668 181.5707,40.2828 184.3607,38.0968 C187.1267,35.9688 189.2917,32.5218 189.7797,28.7068 C190.0907,24.7658 189.1217,20.5218 186.9627,16.6698 C184.8537,12.8158 181.4547,9.5438 177.2427,7.6188 C172.9277,5.7158 168.1857,5.3368 162.9607,6.1608 C153.0587,7.5878 143.1047,13.8578 137.4337,23.1978 C134.5617,27.8488 132.8877,33.2668 132.4127,38.8428 C132.2677,40.3668 132.1937,41.4458 132.2857,43.0608 C132.2987,44.6158 132.3517,46.1458 132.5757,47.4588 C132.8357,50.1668 133.4867,53.0968 134.2507,55.8978 C137.3767,67.1898 144.1987,77.5908 153.1857,85.1938 C162.2807,92.6958 173.5117,97.4078 185.0937,98.7228 C196.8777,100.3598 208.1777,99.0338 219.0267,95.9008 C229.8447,92.9678 239.5587,87.8488 248.1807,82.1898 C256.7167,76.3708 263.9147,69.5178 269.5217,62.3758 C275.1777,55.2588 279.6067,48.0578 282.6337,41.2118 C285.6987,34.3838 287.6547,28.0928 289.0797,22.8318 C290.3687,17.5398 291.0397,13.2838 291.4727,10.3668 C291.8547,7.4338 292.0647,5.8768 292.0647,5.8768 L293.1007,5.8958 C293.1007,5.8958 293.1567,7.4858 293.2677,10.4718 C293.3847,13.4718 293.1877,17.8698 292.6377,23.4828 C291.9967,29.0798 290.7197,35.8828 288.0987,43.3788 C285.5277,50.8768 281.7957,59.1868 276.0777,67.2638 C270.4277,75.3498 263.0027,83.2758 253.9537,90.2018 C244.9247,97.1678 233.9707,102.6578 221.9807,106.2498 C215.9667,107.9898 209.6447,109.0498 203.1877,109.4978 C200.0237,109.6858 196.5937,109.7628 193.3167,109.5998 C190.3397,109.4728 186.7717,108.9668 183.6147,108.4488 C170.5547,106.4478 157.7217,100.5048 147.6907,91.4968 C137.6987,82.4458 130.4357,70.5428 127.3087,57.7358 C126.5407,54.5118 125.9217,51.3478 125.6987,47.9068 C125.4987,46.1638 125.5057,44.6218 125.5347,43.1058 C125.4867,41.6528 125.6247,39.6818 125.8377,38.1738 C126.5897,31.6418 128.7827,25.3078 132.3107,19.9728 C139.3787,9.2528 150.7737,2.4528 162.4377,1.2318 C167.9507,0.5628 174.1207,1.1948 179.0927,3.7398 C184.1077,6.2798 187.9587,10.3848 190.2137,14.9428 C192.5147,19.4358 193.4487,24.5008 192.8637,29.1338 C192.0527,33.8968 189.3197,37.7818 185.9277,40.2128 C182.5237,42.6758 178.3337,43.4848 174.7847,42.8558 C171.0667,42.2538 168.3127,39.3798 167.4277,36.5388 C166.3727,33.7858 166.7207,30.5938 168.4017,28.7838 C169.9467,26.9178 172.1897,26.3068 173.8067,26.4648 C177.5137,27.4178 177.1117,30.3868 177.1717,30.1038 L176.1357,30.1528 Z" id="Fill-2"></path>
            <path d="M37.7314,226.959 C38.2044,226.959 38.6284,227.113 39.0004,227.402 C39.3784,227.699 39.5634,228.063 39.5634,228.501 C39.5634,228.735 39.5054,228.976 39.3844,229.21 L22.1624,268.029 C22.0034,268.431 21.7444,268.745 21.3654,268.98 C20.9964,269.214 20.5914,269.331 20.1544,269.331 C19.7554,269.331 19.3714,269.227 18.9984,269.01 C18.6214,268.789 18.3344,268.468 18.1464,268.029 L0.9784,229.21 C0.8614,228.976 0.8024,228.754 0.8024,228.556 C0.8024,228.081 0.9874,227.699 1.3634,227.402 C1.7364,227.113 2.1604,226.959 2.6404,226.959 C3.3864,226.959 3.8984,227.292 4.1754,227.964 L20.2124,264.242 L36.1904,227.964 C36.4664,227.292 36.9784,226.959 37.7314,226.959" id="Fill-4"></path>
            <path d="M57.999,268.8008 C57.66,268.4438 57.494,267.9918 57.494,267.4448 L57.494,228.9078 C57.494,228.3598 57.66,227.9028 57.999,227.5518 C58.335,227.1998 58.776,227.0208 59.325,227.0208 C59.883,227.0208 60.324,227.1998 60.664,227.5518 C61,227.9028 61.164,228.3598 61.164,228.9078 L61.164,267.4448 C61.164,267.9918 61,268.4438 60.664,268.8008 C60.324,269.1538 59.883,269.3308 59.325,269.3308 C58.776,269.3308 58.335,269.1538 57.999,268.8008" id="Fill-6"></path>
            <path d="M84.3389,268.5664 C83.9649,268.2464 83.7679,267.8574 83.7679,267.3754 L83.7679,228.9144 C83.7679,228.3594 83.9409,227.9094 84.2739,227.5514 C84.6099,227.1934 85.0569,227.0204 85.6069,227.0204 C86.2009,227.0204 86.6539,227.1814 86.9659,227.5264 C87.2859,227.8594 87.4439,228.3214 87.4439,228.9144 L87.4439,265.8404 L107.6799,265.8404 C108.1919,265.8404 108.5959,265.9824 108.8929,266.2534 C109.1879,266.5314 109.3359,266.9254 109.3359,267.4374 C109.3359,267.9494 109.1879,268.3504 108.8929,268.6224 C108.5959,268.8994 108.1919,269.0354 107.6799,269.0354 L85.6639,269.0354 C85.1519,269.0354 84.7089,268.8804 84.3389,268.5664" id="Fill-8"></path>
            <path d="M161.3516,267.7949 C161.3516,268.2279 161.1756,268.5909 160.8226,268.8879 C160.4696,269.1839 160.0506,269.3309 159.5796,269.3309 C159.2676,269.3309 158.9586,269.2379 158.6636,269.0349 C158.3676,268.8379 158.1386,268.5659 157.9806,268.2089 L153.4846,257.9149 L130.5196,257.9149 L125.9646,268.2089 C125.6136,268.9549 125.0646,269.3309 124.3116,269.3309 C123.8366,269.3309 123.4326,269.1839 123.0996,268.8879 C122.7636,268.5909 122.5936,268.2089 122.5936,267.7339 C122.5936,267.4629 122.6306,267.2399 122.7136,267.0809 L139.9936,228.2609 C140.3476,227.3969 140.9976,226.9589 141.9456,226.9589 C142.3786,226.9589 142.7836,227.0759 143.1576,227.3109 C143.5356,227.5519 143.7956,227.8659 143.9576,228.2609 L161.1756,267.0809 C161.2956,267.3199 161.3516,267.5549 161.3516,267.7949 Z M131.8826,254.7129 L152.0696,254.7129 L142.0066,231.8069 L131.8826,254.7129 Z M141.9456,224.0599 C141.6666,224.0599 141.4216,223.9679 141.2056,223.7649 C140.9866,223.5659 140.8776,223.3319 140.8776,223.0539 C140.8776,222.7769 140.9976,222.5239 141.2366,222.2839 L147.3316,215.4759 C147.8876,214.8889 148.4736,214.5929 149.1056,214.5929 C149.6186,214.5929 150.0526,214.7599 150.4076,215.0929 C150.7616,215.4309 150.9376,215.8569 150.9376,216.3689 C150.9376,216.9979 150.5646,217.6079 149.8156,218.2069 L142.6516,223.8259 C142.4566,223.9859 142.2226,224.0599 141.9456,224.0599 Z" id="Fill-10"></path>
            <path d="M210.7979,248.1142 C211.0939,248.4102 211.2489,248.7992 211.2489,249.2732 L211.2489,264.9522 C211.2489,265.9812 210.7919,266.6912 209.8859,267.0812 C208.2699,267.8332 206.3019,268.4242 204.0019,268.8562 C201.6889,269.2942 199.3509,269.5102 196.9829,269.5102 C192.9219,269.5102 189.4149,268.6712 186.4799,266.9942 C183.5429,265.3222 181.2859,262.8732 179.7349,259.6542 C178.1739,256.4402 177.3979,252.6042 177.3979,248.1452 C177.3979,243.7652 178.1679,239.9782 179.7009,236.7842 C181.2429,233.5892 183.4529,231.1342 186.3279,229.4142 C189.2149,227.7052 192.6249,226.8422 196.5699,226.8422 C199.3329,226.8422 201.9169,227.2862 204.3219,228.1682 C206.7279,229.0622 208.6939,230.3392 210.2369,231.9922 C210.7489,232.5032 211.0079,233.0772 211.0079,233.7122 C211.0079,234.1372 210.8909,234.5202 210.6559,234.8352 C210.4159,235.1492 210.1259,235.3102 209.7689,235.3102 C209.4479,235.3102 209.0229,235.1072 208.4609,234.7122 C206.3749,232.9782 204.4399,231.7692 202.6639,231.1042 C200.8939,230.4312 198.8579,230.0982 196.5699,230.0982 C191.6759,230.0982 187.9019,231.6652 185.2339,234.8042 C182.5749,237.9432 181.2429,242.3902 181.2429,248.1452 C181.2429,254.0292 182.5819,258.5262 185.2679,261.6402 C187.9499,264.7602 191.8549,266.3092 196.9829,266.3092 C198.9559,266.3092 200.8999,266.1482 202.8119,265.8162 C204.7299,265.4762 206.4319,264.9892 207.9309,264.3602 L207.9309,250.7482 L198.3469,250.7482 C197.7909,250.7482 197.3649,250.6112 197.0689,250.3412 C196.7789,250.0632 196.6319,249.6802 196.6319,249.2122 C196.6319,248.7432 196.7789,248.3612 197.0689,248.0832 C197.3649,247.8112 197.7909,247.6772 198.3469,247.6772 L209.6519,247.6772 C210.1259,247.6772 210.5089,247.8172 210.7979,248.1142" id="Fill-12"></path>
            <path d="M237.7891,268.122 C235.0871,267.191 232.9661,265.939 231.4241,264.36 C230.9121,263.928 230.6521,263.354 230.6521,262.645 C230.6521,262.208 230.7821,261.838 231.0411,261.523 C231.3001,261.202 231.5841,261.049 231.8981,261.049 C232.2941,261.049 232.7431,261.246 233.2621,261.641 C236.9691,264.718 241.2861,266.261 246.2201,266.261 C249.8101,266.261 252.5851,265.538 254.5331,264.095 C256.4951,262.658 257.4641,260.609 257.4641,257.971 C257.4641,256.429 256.9881,255.195 256.0451,254.245 C255.0951,253.295 253.8931,252.56 252.4361,252.025 C250.9761,251.494 249.0201,250.946 246.5781,250.391 C243.3401,249.686 240.7251,248.959 238.7321,248.207 C236.7461,247.454 235.0511,246.325 233.6751,244.803 C232.2941,243.285 231.6021,241.243 231.6021,238.678 C231.6021,236.352 232.2261,234.286 233.4651,232.491 C234.7111,230.703 236.4561,229.309 238.7071,228.321 C240.9531,227.335 243.5301,226.842 246.4531,226.842 C249.1801,226.842 251.7461,227.286 254.1511,228.174 C256.5581,229.056 258.5491,230.333 260.1221,231.986 C260.6341,232.503 260.8991,233.077 260.8991,233.707 C260.8991,234.143 260.7691,234.515 260.5111,234.829 C260.2581,235.143 259.9751,235.305 259.6591,235.305 C259.2591,235.305 258.8021,235.107 258.2901,234.712 C256.1621,232.973 254.2381,231.776 252.5231,231.104 C250.8091,230.438 248.7791,230.099 246.4531,230.099 C242.9441,230.099 240.2071,230.845 238.2321,232.344 C236.2601,233.843 235.2711,235.933 235.2711,238.622 C235.2711,240.238 235.7101,241.552 236.5731,242.557 C237.4431,243.556 238.5781,244.358 239.9781,244.95 C241.3781,245.542 243.1801,246.116 245.3931,246.665 L246.9291,247.022 C250.1241,247.817 252.6521,248.54 254.5041,249.212 C256.3591,249.878 257.9271,250.915 259.2091,252.32 C260.4921,253.721 261.1341,255.602 261.1341,257.971 C261.1341,260.222 260.5111,262.22 259.2651,263.977 C258.0251,265.736 256.2731,267.099 253.9971,268.06 C251.7401,269.029 249.1381,269.511 246.2201,269.511 C243.2961,269.511 240.4891,269.041 237.7891,268.122" id="Fill-14"></path>
            <path d="M307.7422,266.2841 C308.0322,266.5431 308.1812,266.9311 308.1812,267.4441 C308.1812,267.9561 308.0322,268.3441 307.7422,268.6221 C307.4402,268.8991 307.0212,269.0411 306.4672,269.0411 L279.4762,269.0411 C278.9272,269.0411 278.4892,268.8991 278.1752,268.6221 C277.8602,268.3441 277.7002,267.9741 277.7002,267.5001 C277.7002,267.0241 277.8792,266.5501 278.2362,266.0751 L302.9702,230.4491 L279.3592,230.4491 C278.8902,230.4491 278.5022,230.3141 278.2062,230.0361 C277.9092,229.7601 277.7622,229.3891 277.7622,228.9081 C277.7622,228.3961 277.9092,228.0071 278.2062,227.7301 C278.5022,227.4521 278.8902,227.3161 279.3592,227.3161 L305.8122,227.3161 C306.3612,227.3161 306.8002,227.4651 307.1132,227.7611 C307.4282,228.0561 307.5892,228.4391 307.5892,228.9081 C307.5892,229.3891 307.4282,229.8451 307.1132,230.2701 L282.3202,265.9021 L306.4672,265.9021 C307.0212,265.9021 307.4402,266.0251 307.7422,266.2841" id="Fill-16"></path>
            <path d="M327.8066,268.5049 C327.4246,268.1479 327.2336,267.7149 327.2336,267.2029 L327.2336,229.1489 C327.2336,228.6369 327.4246,228.2049 327.8066,227.8469 C328.1766,227.4889 328.6386,227.3109 329.1886,227.3109 L351.6756,227.3109 C352.1876,227.3109 352.5946,227.4519 352.8906,227.7299 C353.1926,228.0069 353.3406,228.3969 353.3406,228.9079 C353.3406,229.3829 353.1926,229.7649 352.8906,230.0369 C352.5946,230.3149 352.1876,230.4489 351.6756,230.4489 L330.8476,230.4489 L330.8476,246.2519 L350.4976,246.2519 C351.0096,246.2519 351.4106,246.3939 351.7066,246.6709 C352.0086,246.9429 352.1506,247.3369 352.1506,247.8489 C352.1506,248.3609 352.0086,248.7619 351.7066,249.0329 C351.4106,249.3119 351.0096,249.4459 350.4976,249.4459 L330.8476,249.4459 L330.8476,265.9019 L351.6756,265.9019 C352.1876,265.9019 352.5946,266.0259 352.8906,266.2839 C353.1926,266.5369 353.3406,266.9259 353.3406,267.4439 C353.3406,267.9559 353.1926,268.3439 352.8906,268.6219 C352.5946,268.8999 352.1876,269.0349 351.6756,269.0349 L329.1886,269.0349 C328.6386,269.0349 328.1766,268.8569 327.8066,268.5049 M340.9066,224.0599 C340.6296,224.0599 340.3816,223.9679 340.1726,223.7649 C339.9516,223.5669 339.8396,223.3319 339.8396,223.0539 C339.8396,222.7769 339.9626,222.5249 340.2036,222.2839 L346.2976,215.4759 C346.8466,214.8889 347.4386,214.5929 348.0746,214.5929 C348.5856,214.5929 349.0176,214.7599 349.3746,215.0929 C349.7266,215.4309 349.9056,215.8579 349.9056,216.3689 C349.9056,216.9979 349.5296,217.6089 348.7766,218.2069 L341.6166,223.8259 C341.4186,223.9859 341.1846,224.0599 340.9066,224.0599" id="Fill-18"></path>
            <path d="M373.8428,268.832 C373.5038,268.499 373.3438,268.029 373.3438,267.444 L373.3438,229.148 C373.3438,228.637 373.5228,228.205 373.9048,227.847 C374.2748,227.496 374.7378,227.311 375.2918,227.311 L389.1448,227.311 C393.4808,227.311 396.8418,228.359 399.2288,230.449 C401.6158,232.541 402.8068,235.501 402.8068,239.331 C402.8068,243.199 401.6108,246.185 399.2048,248.293 C396.7988,250.402 393.4378,251.457 389.1448,251.457 L377.0068,251.457 L377.0068,267.444 C377.0068,268.029 376.8408,268.499 376.5068,268.832 C376.1668,269.164 375.7298,269.331 375.1688,269.331 C374.6138,269.331 374.1818,269.164 373.8428,268.832 Z M388.9048,248.324 C395.7328,248.324 399.1428,245.326 399.1428,239.331 C399.1428,233.404 395.7328,230.449 388.9048,230.449 L377.0068,230.449 L377.0068,248.324 L388.9048,248.324 Z" id="Fill-20"></path>
            <path d="M39.0703,334.3261 C39.0703,334.5061 38.9933,334.6471 38.8543,334.7641 C38.7163,334.8821 38.5463,334.9441 38.3543,334.9441 C38.2283,334.9441 38.1073,334.9001 37.9903,334.8271 C37.8713,334.7461 37.7813,334.6351 37.7193,334.4931 L35.9183,330.3731 L26.7343,330.3731 L24.9093,334.4931 C24.7693,334.7951 24.5493,334.9441 24.2463,334.9441 C24.0583,334.9441 23.8983,334.8821 23.7583,334.7641 C23.6263,334.6471 23.5583,334.4931 23.5583,334.3081 C23.5583,334.1971 23.5763,334.1051 23.6073,334.0441 L30.5183,318.5131 C30.6643,318.1741 30.9243,317.9951 31.3023,317.9951 C31.4783,317.9951 31.6343,318.0441 31.7863,318.1371 C31.9403,318.2291 32.0453,318.3591 32.1103,318.5131 L38.9933,334.0441 C39.0463,334.1361 39.0703,334.2351 39.0703,334.3261 Z M27.2773,329.0971 L35.3513,329.0971 L31.3263,319.9301 L27.2773,329.0971 Z" id="Fill-22"></path>
            <path d="M42.2031,334.6347 C42.0531,334.5117 41.9751,334.3517 41.9751,334.1597 L41.9751,318.7787 C41.9751,318.5557 42.0461,318.3697 42.1801,318.2357 C42.3111,318.0867 42.4861,318.0197 42.7091,318.0197 C42.9501,318.0197 43.1331,318.0867 43.2581,318.2227 C43.3851,318.3527 43.4471,318.5367 43.4471,318.7787 L43.4471,333.5497 L51.5391,333.5497 C51.7481,333.5497 51.9121,333.6067 52.0251,333.7157 C52.1451,333.8267 52.2011,333.9817 52.2011,334.1857 C52.2011,334.3887 52.1451,334.5487 52.0251,334.6587 C51.9121,334.7707 51.7481,334.8267 51.5391,334.8267 L42.7341,334.8267 C42.5311,334.8267 42.3541,334.7647 42.2031,334.6347" id="Fill-24"></path>
            <path d="M68.2812,334.3261 C68.2812,334.5061 68.2032,334.6471 68.0642,334.7641 C67.9262,334.8821 67.7572,334.9441 67.5642,334.9441 C67.4382,334.9441 67.3182,334.9001 67.2012,334.8271 C67.0822,334.7461 66.9912,334.6351 66.9292,334.4931 L65.1292,330.3731 L55.9452,330.3731 L54.1192,334.4931 C53.9802,334.7951 53.7582,334.9441 53.4562,334.9441 C53.2682,334.9441 53.1082,334.8821 52.9682,334.7641 C52.8372,334.6471 52.7692,334.4931 52.7692,334.3081 C52.7692,334.1971 52.7872,334.1051 52.8182,334.0441 L59.7292,318.5131 C59.8752,318.1741 60.1332,317.9951 60.5112,317.9951 C60.6882,317.9951 60.8452,318.0441 60.9972,318.1371 C61.1502,318.2291 61.2562,318.3591 61.3202,318.5131 L68.2032,334.0441 C68.2562,334.1361 68.2812,334.2351 68.2812,334.3261 Z M56.4882,329.0971 L64.5612,329.0971 L60.5372,319.9301 L56.4882,329.0971 Z" id="Fill-26"></path>
            <path d="M71.3887,334.7461 C71.2557,334.6051 71.1857,334.4261 71.1857,334.1851 L71.1857,318.8701 C71.1857,318.6671 71.2637,318.4941 71.4137,318.3461 C71.5587,318.2111 71.7497,318.1371 71.9687,318.1371 L77.5077,318.1371 C79.2457,318.1371 80.5917,318.5561 81.5447,319.3891 C82.4977,320.2331 82.9787,321.4121 82.9787,322.9411 C82.9787,324.4891 82.4977,325.6801 81.5327,326.5311 C80.5727,327.3751 79.2247,327.7951 77.5077,327.7951 L72.6577,327.7951 L72.6577,334.1851 C72.6577,334.4261 72.5877,334.6051 72.4557,334.7461 C72.3187,334.8761 72.1417,334.9431 71.9197,334.9431 C71.6977,334.9431 71.5217,334.8761 71.3887,334.7461 Z M77.4147,326.5431 C80.1407,326.5431 81.5067,325.3411 81.5067,322.9411 C81.5067,320.5791 80.1407,319.3891 77.4147,319.3891 L72.6577,319.3891 L72.6577,326.5431 L77.4147,326.5431 Z" id="Fill-28"></path>
            <path d="M86.4941,334.7285 C86.3551,334.5915 86.2911,334.4075 86.2911,334.1855 L86.2911,318.7715 C86.2911,318.5555 86.3551,318.3715 86.4941,318.2295 C86.6271,318.0925 86.8031,318.0195 87.0231,318.0195 C87.2461,318.0195 87.4231,318.0925 87.5551,318.2295 C87.6931,318.3715 87.7561,318.5555 87.7561,318.7715 L87.7561,334.1855 C87.7561,334.4075 87.6931,334.5915 87.5551,334.7285 C87.4231,334.8755 87.2461,334.9435 87.0231,334.9435 C86.8031,334.9435 86.6271,334.8755 86.4941,334.7285 M87.0231,316.8345 C86.9161,316.8345 86.8141,316.7975 86.7281,316.7175 C86.6441,316.6375 86.6011,316.5445 86.6011,316.4345 C86.6011,316.3225 86.6441,316.2245 86.7401,316.1265 L89.1781,313.4065 C89.3981,313.1655 89.6391,313.0485 89.8921,313.0485 C90.0931,313.0485 90.2631,313.1165 90.4101,313.2455 C90.5561,313.3805 90.6231,313.5535 90.6231,313.7575 C90.6231,314.0095 90.4731,314.2505 90.1761,314.4925 L87.3081,316.7425 C87.2241,316.8045 87.1391,316.8345 87.0231,316.8345" id="Fill-30"></path>
            <path d="M96.375,334.7343 C96.248,334.5863 96.184,334.4073 96.184,334.1853 L96.184,319.4133 L90.716,319.4133 C90.512,319.4133 90.35,319.3573 90.229,319.2533 C90.108,319.1353 90.053,318.9803 90.053,318.7783 C90.053,318.5683 90.108,318.4143 90.229,318.3023 C90.35,318.1923 90.512,318.1303 90.716,318.1303 L103.076,318.1303 C103.264,318.1303 103.422,318.1983 103.548,318.3153 C103.674,318.4383 103.739,318.5873 103.739,318.7783 C103.739,318.9683 103.674,319.1173 103.548,319.2403 C103.422,319.3573 103.264,319.4133 103.076,319.4133 L97.63,319.4133 L97.63,334.1853 C97.63,334.4073 97.562,334.5863 97.43,334.7343 C97.291,334.8763 97.114,334.9443 96.893,334.9443 C96.67,334.9443 96.502,334.8763 96.375,334.7343" id="Fill-32"></path>
            <path d="M119.4316,317.9951 C119.6206,317.9951 119.7906,318.0501 119.9356,318.1741 C120.0896,318.2901 120.1636,318.4381 120.1636,318.6051 C120.1636,318.7041 120.1386,318.7971 120.0956,318.8951 L113.2026,334.4251 C113.1416,334.5801 113.0336,334.7101 112.8886,334.8021 C112.7386,334.8941 112.5716,334.9441 112.4016,334.9441 C112.2446,334.9441 112.0856,334.9001 111.9426,334.8141 C111.7876,334.7271 111.6766,334.5981 111.5936,334.4251 L104.7286,318.8951 C104.6826,318.7971 104.6586,318.7161 104.6586,318.6361 C104.6586,318.4451 104.7346,318.2901 104.8866,318.1741 C105.0366,318.0501 105.2016,317.9951 105.3926,317.9951 C105.6936,317.9951 105.8986,318.1311 106.0116,318.4011 L112.4196,332.9081 L118.8126,318.4011 C118.9276,318.1311 119.1266,317.9951 119.4316,317.9951" id="Fill-34"></path>
            <path d="M135.29,334.333 C135.29,334.5 135.223,334.647 135.077,334.765 C134.938,334.888 134.771,334.944 134.584,334.944 C134.457,334.944 134.33,334.906 134.217,334.82 C134.097,334.746 134.01,334.635 133.945,334.493 L132.144,330.38 L122.957,330.38 L121.139,334.493 C120.993,334.796 120.771,334.944 120.475,334.944 C120.283,334.944 120.121,334.888 119.988,334.765 C119.855,334.647 119.784,334.493 119.784,334.309 C119.784,334.191 119.806,334.111 119.837,334.05 L126.744,318.519 C126.891,318.167 127.148,318.001 127.528,318.001 C127.701,318.001 127.863,318.044 128.016,318.137 C128.16,318.229 128.268,318.358 128.33,318.519 L135.223,334.05 C135.271,334.142 135.29,334.235 135.29,334.333 Z M123.507,329.103 L131.577,329.103 L127.553,319.937 L123.507,329.103 Z M127.528,316.835 C127.414,316.835 127.321,316.798 127.232,316.718 C127.143,316.638 127.1,316.545 127.1,316.435 C127.1,316.323 127.148,316.225 127.244,316.126 L129.684,313.406 C129.902,313.165 130.137,313.049 130.391,313.049 C130.6,313.049 130.769,313.116 130.914,313.246 C131.059,313.381 131.13,313.554 131.13,313.758 C131.13,314.011 130.977,314.251 130.674,314.492 L127.811,316.742 C127.731,316.804 127.636,316.835 127.528,316.835 Z" id="Fill-36"></path>
            <path d="M151.1162,318.2236 C151.2362,318.3526 151.2932,318.5366 151.2932,318.7786 L151.2932,334.1856 C151.2932,334.4076 151.2302,334.5916 151.1042,334.7286 C150.9772,334.8756 150.8082,334.9436 150.5862,334.9436 C150.3452,334.9436 150.1332,334.8276 149.9412,334.5916 L139.5762,320.5976 L139.5762,334.1856 C139.5762,334.4076 139.5152,334.5916 139.3882,334.7286 C139.2622,334.8756 139.0982,334.9436 138.8882,334.9436 C138.6542,334.9436 138.4782,334.8756 138.3712,334.7406 C138.2562,334.6106 138.2012,334.4196 138.2012,334.1856 L138.2012,318.7786 C138.2012,318.5556 138.2712,318.3706 138.4042,318.2366 C138.5372,318.0866 138.7242,318.0196 138.9602,318.0196 C139.2132,318.0196 139.4192,318.1366 139.5762,318.3706 L149.9232,332.3406 L149.9232,318.7786 C149.9232,318.5556 149.9882,318.3706 150.1132,318.2366 C150.2382,318.0866 150.4042,318.0196 150.6052,318.0196 C150.8262,318.0196 150.9962,318.0866 151.1162,318.2236" id="Fill-38"></path>
            <path d="M166.5859,318.0439 C166.7539,318.0439 166.9059,318.1059 167.0319,318.2349 C167.1579,318.3589 167.2239,318.5189 167.2239,318.7039 C167.2239,318.8759 167.1639,319.0299 167.0569,319.1539 L161.1429,326.7769 L161.1429,334.1859 C161.1429,334.4069 161.0779,334.5919 160.9509,334.7289 C160.8239,334.8759 160.6489,334.9439 160.4279,334.9439 C160.2049,334.9439 160.0289,334.8759 159.8969,334.7289 C159.7639,334.5919 159.6949,334.4069 159.6949,334.1859 L159.6949,326.7339 L153.8029,319.1539 C153.6899,319.0299 153.6359,318.8759 153.6359,318.7039 C153.6359,318.5309 153.6999,318.3769 153.8269,318.2479 C153.9539,318.1059 154.0999,318.0439 154.2729,318.0439 C154.4839,318.0439 154.6529,318.1369 154.7989,318.3279 L160.4279,325.6179 L166.0659,318.3279 C166.2059,318.1369 166.3819,318.0439 166.5859,318.0439" id="Fill-40"></path>
            <path d="M190.8359,326.457 C190.9569,326.58 191.0119,326.728 191.0119,326.92 L191.0119,333.192 C191.0119,333.6 190.8299,333.89 190.4699,334.044 C189.8249,334.345 189.0359,334.58 188.1129,334.759 C187.1899,334.925 186.2569,335.018 185.3109,335.018 C183.6889,335.018 182.2849,334.685 181.1039,334.006 C179.9289,333.334 179.0309,332.359 178.4079,331.076 C177.7889,329.788 177.4709,328.252 177.4709,326.47 C177.4709,324.724 177.7829,323.206 178.3939,321.924 C179.0129,320.646 179.8979,319.659 181.0489,318.98 C182.2009,318.29 183.5669,317.951 185.1469,317.951 C186.2509,317.951 187.2809,318.131 188.2459,318.481 C189.2079,318.834 189.9979,319.34 190.6089,320.012 C190.8179,320.215 190.9209,320.437 190.9209,320.69 C190.9209,320.869 190.8739,321.023 190.7809,321.14 C190.6859,321.27 190.5649,321.338 190.4209,321.338 C190.2939,321.338 190.1239,321.258 189.9009,321.097 C189.0689,320.399 188.2919,319.919 187.5829,319.648 C186.8709,319.383 186.0569,319.253 185.1469,319.253 C183.1889,319.253 181.6779,319.876 180.6109,321.134 C179.5439,322.386 179.0129,324.169 179.0129,326.47 C179.0129,328.818 179.5499,330.62 180.6229,331.866 C181.6989,333.117 183.2559,333.735 185.3109,333.735 C186.0999,333.735 186.8769,333.673 187.6419,333.537 C188.4059,333.401 189.0879,333.212 189.6869,332.958 L189.6869,327.512 L185.8539,327.512 C185.6319,327.512 185.4619,327.456 185.3419,327.352 C185.2269,327.233 185.1649,327.086 185.1649,326.895 C185.1649,326.703 185.2269,326.561 185.3419,326.444 C185.4619,326.34 185.6319,326.284 185.8539,326.284 L190.3769,326.284 C190.5649,326.284 190.7169,326.34 190.8359,326.457" id="Fill-42"></path>
            <path d="M205.7598,318.0439 C205.9318,318.0439 206.0858,318.1059 206.2098,318.2349 C206.3398,318.3589 206.4018,318.5189 206.4018,318.7039 C206.4018,318.8759 206.3458,319.0299 206.2348,319.1539 L200.3208,326.7769 L200.3208,334.1859 C200.3208,334.4069 200.2518,334.5919 200.1288,334.7289 C200.0058,334.8759 199.8258,334.9439 199.6048,334.9439 C199.3818,334.9439 199.2088,334.8759 199.0738,334.7289 C198.9388,334.5919 198.8698,334.4069 198.8698,334.1859 L198.8698,326.7339 L192.9808,319.1539 C192.8658,319.0299 192.8138,318.8759 192.8138,318.7039 C192.8138,318.5309 192.8778,318.3769 193.0048,318.2479 C193.1308,318.1059 193.2758,318.0439 193.4518,318.0439 C193.6618,318.0439 193.8308,318.1369 193.9768,318.3279 L199.6048,325.6179 L205.2408,318.3279 C205.3828,318.1369 205.5628,318.0439 205.7598,318.0439" id="Fill-44"></path>
            <path d="M208.998,334.6103 C208.844,334.4683 208.77,334.2963 208.77,334.0873 L208.77,318.8703 C208.77,318.6673 208.844,318.4943 208.998,318.3523 C209.145,318.2113 209.331,318.1363 209.553,318.1363 L218.545,318.1363 C218.755,318.1363 218.909,318.1923 219.033,318.3093 C219.149,318.4143 219.205,318.5753 219.205,318.7713 C219.205,318.9633 219.149,319.1173 219.033,319.2283 C218.909,319.3333 218.755,319.3953 218.545,319.3953 L210.213,319.3953 L210.213,325.7163 L218.07,325.7163 C218.28,325.7163 218.434,325.7653 218.558,325.8773 C218.675,325.9883 218.736,326.1423 218.736,326.3523 C218.736,326.5543 218.675,326.7103 218.558,326.8273 C218.434,326.9313 218.28,326.9943 218.07,326.9943 L210.213,326.9943 L210.213,333.5743 L218.545,333.5743 C218.755,333.5743 218.909,333.6243 219.033,333.7223 C219.149,333.8333 219.205,333.9813 219.205,334.1853 C219.205,334.3953 219.149,334.5483 219.033,334.6663 C218.909,334.7703 218.755,334.8263 218.545,334.8263 L209.553,334.8263 C209.331,334.8263 209.145,334.7583 208.998,334.6103" id="Fill-46"></path>
            <path d="M235.0937,334.3574 C235.0937,334.5244 235.0257,334.6724 234.8897,334.7904 C234.7607,334.9134 234.5997,334.9684 234.4277,334.9684 C234.1557,334.9684 233.9517,334.8444 233.7917,334.5914 L230.5907,329.4724 C230.1347,328.7454 229.6647,328.2574 229.1847,327.9804 C228.7027,327.7144 228.0367,327.5854 227.1867,327.5854 L223.9357,327.5854 L223.9357,334.1854 C223.9357,334.4254 223.8737,334.6104 223.7387,334.7404 C223.6027,334.8814 223.4297,334.9434 223.2077,334.9434 C222.9857,334.9434 222.8067,334.8814 222.6777,334.7404 C222.5417,334.6104 222.4737,334.4254 222.4737,334.1854 L222.4737,318.8704 C222.4737,318.6674 222.5477,318.4874 222.7017,318.3524 C222.8447,318.2044 223.0337,318.1364 223.2567,318.1364 L229.1477,318.1364 C230.8997,318.1364 232.2497,318.5374 233.1987,319.3334 C234.1427,320.1344 234.6177,321.2944 234.6177,322.8234 C234.6177,324.1694 234.2167,325.2294 233.4087,326.0184 C232.6017,326.8084 231.4667,327.2704 230.0047,327.3944 C230.3807,327.5244 230.7267,327.7334 231.0407,328.0234 C231.3617,328.3134 231.6827,328.7134 232.0157,329.2384 L234.9457,333.9504 C235.0437,334.0924 235.0937,334.2284 235.0937,334.3574 Z M229.0557,326.3274 C231.7997,326.3274 233.1747,325.1554 233.1747,322.7994 C233.1747,321.6464 232.8287,320.7944 232.1577,320.2344 C231.4797,319.6714 230.4427,319.3954 229.0557,319.3954 L223.9167,319.3954 L223.9167,326.3274 L229.0557,326.3274 Z" id="Fill-48"></path>
            <path d="M253.9971,318.2295 C254.1271,318.3765 254.1941,318.5555 254.1941,318.7715 L254.1941,334.1855 C254.1941,334.4135 254.1331,334.5855 254.0101,334.7345 C253.8801,334.8755 253.7011,334.9435 253.4851,334.9435 C253.2641,334.9435 253.0971,334.8815 252.9921,334.7405 C252.8751,334.6105 252.8191,334.4255 252.8191,334.1855 L252.8191,321.0475 L247.2131,331.8905 C247.0211,332.2545 246.7641,332.4335 246.4301,332.4335 C246.1021,332.4335 245.8441,332.2545 245.6521,331.8905 L239.9901,321.1395 L239.9901,334.1855 C239.9901,334.4255 239.9351,334.6105 239.8301,334.7405 C239.7131,334.8815 239.5531,334.9435 239.3301,334.9435 C239.0901,334.9435 238.9111,334.8815 238.8001,334.7405 C238.6771,334.6105 238.6211,334.4255 238.6211,334.1855 L238.6211,318.7715 C238.6211,318.5555 238.6841,318.3765 238.8191,318.2295 C238.9541,318.0925 239.1391,318.0195 239.3801,318.0195 C239.6571,318.0195 239.8971,318.1985 240.0891,318.5685 L246.4531,330.7805 L252.7261,318.5685 C252.9121,318.1985 253.1521,318.0195 253.4361,318.0195 C253.6701,318.0195 253.8611,318.0925 253.9971,318.2295" id="Fill-50"></path>
            <path d="M258.7285,334.6103 C258.5805,334.4683 258.4995,334.2963 258.4995,334.0873 L258.4995,318.8703 C258.4995,318.6673 258.5805,318.4943 258.7285,318.3523 C258.8815,318.2113 259.0615,318.1363 259.2835,318.1363 L268.2755,318.1363 C268.4855,318.1363 268.6455,318.1923 268.7625,318.3093 C268.8855,318.4143 268.9415,318.5753 268.9415,318.7713 C268.9415,318.9633 268.8855,319.1173 268.7625,319.2283 C268.6455,319.3333 268.4855,319.3953 268.2755,319.3953 L259.9505,319.3953 L259.9505,325.7163 L267.8065,325.7163 C268.0095,325.7163 268.1705,325.7653 268.2935,325.8773 C268.4115,325.9883 268.4665,326.1423 268.4665,326.3523 C268.4665,326.5543 268.4115,326.7103 268.2935,326.8273 C268.1705,326.9313 268.0095,326.9943 267.8065,326.9943 L259.9505,326.9943 L259.9505,333.5743 L268.2755,333.5743 C268.4855,333.5743 268.6455,333.6243 268.7625,333.7223 C268.8855,333.8333 268.9415,333.9813 268.9415,334.1853 C268.9415,334.3953 268.8855,334.5483 268.7625,334.6663 C268.6455,334.7703 268.4855,334.8263 268.2755,334.8263 L259.2835,334.8263 C259.0615,334.8263 258.8815,334.7583 258.7285,334.6103" id="Fill-52"></path>
            <path d="M284.0713,334.2588 C284.0713,334.4318 283.9973,334.5858 283.8683,334.7218 C283.7323,334.8508 283.5783,334.9188 283.4053,334.9188 C283.2693,334.9188 283.1153,334.8578 282.9553,334.7348 L273.6783,326.8518 L273.6783,334.1918 C273.6783,334.4128 273.6103,334.5858 273.4683,334.7348 C273.3403,334.8688 273.1613,334.9488 272.9383,334.9488 C272.7223,334.9488 272.5443,334.8688 272.4083,334.7348 C272.2783,334.5858 272.2113,334.4128 272.2113,334.1918 L272.2113,318.7788 C272.2113,318.5558 272.2783,318.3768 272.4083,318.2298 C272.5443,318.0868 272.7223,318.0198 272.9383,318.0198 C273.1613,318.0198 273.3403,318.0868 273.4683,318.2298 C273.6103,318.3768 273.6783,318.5558 273.6783,318.7788 L273.6783,325.9018 L282.4863,318.2298 C282.6093,318.1058 282.7583,318.0438 282.9293,318.0438 C283.1033,318.0438 283.2693,318.1118 283.4053,318.2408 C283.5473,318.3828 283.6213,318.5308 283.6213,318.7098 C283.6213,318.8958 283.5353,319.0678 283.3553,319.2288 L275.1223,326.3028 L283.8063,333.7358 C283.9783,333.8958 284.0713,334.0688 284.0713,334.2588" id="Fill-54"></path>
            <path d="M299.4102,317.9951 C299.5962,317.9951 299.7682,318.0501 299.9102,318.1741 C300.0632,318.2901 300.1382,318.4381 300.1382,318.6051 C300.1382,318.7041 300.1132,318.7971 300.0702,318.8951 L293.1812,334.4251 C293.1192,334.5801 293.0082,334.7101 292.8672,334.8021 C292.7132,334.8941 292.5532,334.9441 292.3792,334.9441 C292.2192,334.9441 292.0642,334.9001 291.9172,334.8141 C291.7692,334.7271 291.6512,334.5981 291.5712,334.4251 L284.7062,318.8951 C284.6632,318.7971 284.6332,318.7161 284.6332,318.6361 C284.6332,318.4451 284.7132,318.2901 284.8602,318.1741 C285.0142,318.0501 285.1762,317.9951 285.3672,317.9951 C285.6692,317.9951 285.8722,318.1311 285.9892,318.4011 L292.3982,332.9081 L298.7882,318.4011 C298.9042,318.1311 299.1012,317.9951 299.4102,317.9951" id="Fill-56"></path>
            <path d="M302.8027,334.6172 C302.6547,334.4692 302.5807,334.2962 302.5807,334.0932 L302.5807,318.8702 C302.5807,318.6672 302.6547,318.4872 302.8027,318.3522 C302.9507,318.2052 303.1417,318.1372 303.3647,318.1372 L312.3567,318.1372 C312.5667,318.1372 312.7197,318.1922 312.8437,318.3042 C312.9607,318.4142 313.0167,318.5742 313.0167,318.7712 C313.0167,318.9632 312.9607,319.1172 312.8437,319.2212 C312.7197,319.3392 312.5667,319.3952 312.3567,319.3952 L304.0247,319.3952 L304.0247,325.7172 L311.8817,325.7172 C312.0907,325.7172 312.2447,325.7652 312.3687,325.8772 C312.4857,325.9882 312.5417,326.1482 312.5417,326.3512 C312.5417,326.5542 312.4857,326.7162 312.3687,326.8272 C312.2447,326.9372 312.0907,326.9942 311.8817,326.9942 L304.0247,326.9942 L304.0247,333.5742 L312.3567,333.5742 C312.5667,333.5742 312.7197,333.6242 312.8437,333.7222 C312.9607,333.8332 313.0167,333.9812 313.0167,334.1852 C313.0167,334.3952 312.9607,334.5492 312.8437,334.6592 C312.7197,334.7712 312.5667,334.8202 312.3567,334.8202 L303.3647,334.8202 C303.1417,334.8202 302.9507,334.7532 302.8027,334.6172 M308.0457,316.8352 C307.9337,316.8352 307.8417,316.7982 307.7487,316.7182 C307.6627,316.6382 307.6257,316.5452 307.6257,316.4342 C307.6257,316.3222 307.6687,316.2242 307.7617,316.1272 L310.2037,313.4062 C310.4197,313.1652 310.6547,313.0492 310.9127,313.0492 C311.1157,313.0492 311.2897,313.1162 311.4317,313.2462 C311.5797,313.3812 311.6467,313.5542 311.6467,313.7582 C311.6467,314.0102 311.4987,314.2512 311.1907,314.4912 L308.3277,316.7422 C308.2487,316.8052 308.1567,316.8352 308.0457,316.8352" id="Fill-58"></path>
            <path d="M316.5068,334.6172 C316.3598,334.4692 316.2848,334.3022 316.2848,334.0932 L316.2848,318.8702 C316.2848,318.6672 316.3598,318.4942 316.5068,318.3522 C316.6608,318.2052 316.8468,318.1372 317.0628,318.1372 L321.6578,318.1372 C324.2908,318.1372 326.3328,318.8582 327.7758,320.2902 C329.2248,321.7252 329.9408,323.7922 329.9408,326.4702 C329.9408,329.1522 329.2248,331.2192 327.7758,332.6552 C326.3328,334.1052 324.2908,334.8272 321.6578,334.8272 L317.0628,334.8272 C316.8468,334.8272 316.6608,334.7532 316.5068,334.6172 Z M321.5898,333.5512 C326.1358,333.5512 328.4038,331.1872 328.4038,326.4702 C328.4038,321.7682 326.1358,319.4142 321.5898,319.4142 L317.7538,319.4142 L317.7538,333.5512 L321.5898,333.5512 Z" id="Fill-60"></path>
            <path d="M333.8145,334.6103 C333.6665,334.4683 333.5855,334.2963 333.5855,334.0873 L333.5855,318.8703 C333.5855,318.6673 333.6665,318.4943 333.8145,318.3523 C333.9685,318.2113 334.1465,318.1363 334.3695,318.1363 L343.3615,318.1363 C343.5715,318.1363 343.7325,318.1923 343.8485,318.3093 C343.9725,318.4143 344.0285,318.5753 344.0285,318.7713 C344.0285,318.9633 343.9725,319.1173 343.8485,319.2283 C343.7325,319.3333 343.5715,319.3953 343.3615,319.3953 L335.0355,319.3953 L335.0355,325.7163 L342.8925,325.7163 C343.0965,325.7163 343.2565,325.7653 343.3745,325.8773 C343.4985,325.9883 343.5525,326.1423 343.5525,326.3523 C343.5525,326.5543 343.4985,326.7103 343.3745,326.8273 C343.2565,326.9313 343.0965,326.9943 342.8925,326.9943 L335.0355,326.9943 L335.0355,333.5743 L343.3615,333.5743 C343.5715,333.5743 343.7325,333.6243 343.8485,333.7223 C343.9725,333.8333 344.0285,333.9813 344.0285,334.1853 C344.0285,334.3953 343.9725,334.5483 343.8485,334.6663 C343.7325,334.7703 343.5715,334.8263 343.3615,334.8263 L334.3695,334.8263 C334.1465,334.8263 333.9685,334.7583 333.8145,334.6103" id="Fill-62"></path>
            <path d="M347.5186,334.6347 C347.3716,334.5117 347.2906,334.3517 347.2906,334.1597 L347.2906,318.7787 C347.2906,318.5557 347.3646,318.3697 347.4946,318.2357 C347.6296,318.0867 347.8026,318.0197 348.0256,318.0197 C348.2656,318.0197 348.4506,318.0867 348.5736,318.2227 C348.7036,318.3527 348.7646,318.5367 348.7646,318.7787 L348.7646,333.5497 L356.8566,333.5497 C357.0596,333.5497 357.2266,333.6067 357.3446,333.7157 C357.4606,333.8267 357.5166,333.9817 357.5166,334.1857 C357.5166,334.3887 357.4606,334.5487 357.3446,334.6587 C357.2266,334.7707 357.0596,334.8267 356.8566,334.8267 L348.0486,334.8267 C347.8456,334.8267 347.6726,334.7647 347.5186,334.6347" id="Fill-64"></path>
            <path d="M375.2852,318.2295 C375.4222,318.3765 375.4892,318.5555 375.4892,318.7715 L375.4892,334.1855 C375.4892,334.4135 375.4282,334.5855 375.2992,334.7345 C375.1752,334.8755 374.9962,334.9435 374.7732,334.9435 C374.5572,334.9435 374.3912,334.8815 374.2872,334.7405 C374.1692,334.6105 374.1142,334.4255 374.1142,334.1855 L374.1142,321.0475 L368.5072,331.8905 C368.3162,332.2545 368.0572,332.4335 367.7242,332.4335 C367.3912,332.4335 367.1332,332.2545 366.9472,331.8905 L361.2852,321.1395 L361.2852,334.1855 C361.2852,334.4255 361.2302,334.6105 361.1182,334.7405 C361.0072,334.8815 360.8412,334.9435 360.6262,334.9435 C360.3842,334.9435 360.2062,334.8815 360.0942,334.7405 C359.9722,334.6105 359.9162,334.4255 359.9162,334.1855 L359.9162,318.7715 C359.9162,318.5555 359.9772,318.3765 360.1122,318.2295 C360.2492,318.0925 360.4332,318.0195 360.6742,318.0195 C360.9522,318.0195 361.1922,318.1985 361.3772,318.5685 L367.7492,330.7805 L374.0152,318.5685 C374.2072,318.1985 374.4472,318.0195 374.7302,318.0195 C374.9662,318.0195 375.1562,318.0925 375.2852,318.2295" id="Fill-66"></path>
            <path d="M379.998,334.7343 C379.862,334.5863 379.795,334.4073 379.795,334.1853 L379.795,318.7783 C379.795,318.5553 379.862,318.3713 379.998,318.2293 C380.128,318.0873 380.307,318.0193 380.528,318.0193 C380.751,318.0193 380.923,318.0873 381.064,318.2293 C381.194,318.3713 381.269,318.5553 381.269,318.7783 L381.269,334.1853 C381.269,334.4073 381.194,334.5863 381.064,334.7343 C380.923,334.8763 380.751,334.9443 380.528,334.9443 C380.307,334.9443 380.128,334.8763 379.998,334.7343" id="Fill-68"></path>
            <path d="M76.0176,364.5058 C76.1356,364.6228 76.1936,364.7768 76.1936,364.9618 L76.1936,371.2348 C76.1936,371.6478 76.0116,371.9318 75.6506,372.0858 C75.0056,372.3948 74.2166,372.6228 73.2946,372.8008 C72.3726,372.9748 71.4396,373.0598 70.4926,373.0598 C68.8666,373.0598 67.4666,372.7278 66.2856,372.0488 C65.1116,371.3828 64.2126,370.4018 63.5866,369.1188 C62.9666,367.8298 62.6526,366.2938 62.6526,364.5188 C62.6526,362.7668 62.9606,361.2488 63.5746,359.9658 C64.1956,358.6898 65.0776,357.7088 66.2266,357.0248 C67.3826,356.3398 68.7466,355.9938 70.3246,355.9938 C71.4266,355.9938 72.4626,356.1728 73.4276,356.5248 C74.3866,356.8818 75.1756,357.3878 75.7896,358.0538 C75.9966,358.2578 76.0976,358.4858 76.0976,358.7378 C76.0976,358.9108 76.0546,359.0658 75.9586,359.1838 C75.8636,359.3128 75.7446,359.3798 75.5986,359.3798 C75.4726,359.3798 75.3026,359.3008 75.0806,359.1398 C74.2476,358.4478 73.4706,357.9678 72.7646,357.6958 C72.0486,357.4318 71.2346,357.2948 70.3246,357.2948 C68.3676,357.2948 66.8596,357.9248 65.7916,359.1768 C64.7246,360.4288 64.1956,362.2118 64.1956,364.5188 C64.1956,366.8678 64.7316,368.6618 65.8046,369.9078 C66.8766,371.1598 68.4376,371.7768 70.4926,371.7768 C71.2816,371.7768 72.0556,371.7158 72.8206,371.5798 C73.5846,371.4438 74.2666,371.2528 74.8676,370.9998 L74.8676,365.5608 L71.0346,365.5608 C70.8126,365.5608 70.6426,365.4988 70.5226,365.3938 C70.4086,365.2828 70.3436,365.1288 70.3436,364.9368 C70.3436,364.7468 70.4086,364.6048 70.5226,364.4928 C70.6426,364.3818 70.8126,364.3268 71.0346,364.3268 L75.5566,364.3268 C75.7446,364.3268 75.8986,364.3818 76.0176,364.5058" id="Fill-70"></path>
            <path d="M83.1582,372.0302 C82.0312,371.3402 81.1742,370.3582 80.5722,369.0692 C79.9712,367.7872 79.6762,366.2752 79.6762,364.5362 C79.6762,362.7852 79.9712,361.2662 80.5722,359.9782 C81.1742,358.6952 82.0312,357.7032 83.1442,357.0242 C84.2562,356.3332 85.5752,355.9942 87.1112,355.9942 C88.6372,355.9942 89.9632,356.3332 91.0832,357.0242 C92.2052,357.7032 93.0662,358.6892 93.6662,359.9722 C94.2652,361.2492 94.5602,362.7652 94.5602,364.5112 C94.5602,366.2632 94.2652,367.7872 93.6662,369.0692 C93.0662,370.3582 92.2052,371.3402 91.0832,372.0302 C89.9632,372.7152 88.6372,373.0602 87.1112,373.0602 C85.5942,373.0602 84.2732,372.7152 83.1582,372.0302 M91.4862,369.8662 C92.5292,368.6012 93.0472,366.8182 93.0472,364.5112 C93.0472,362.2122 92.5292,360.4282 91.5002,359.1762 C90.4632,357.9192 89.0042,357.2952 87.1112,357.2952 C85.2262,357.2952 83.7732,357.9252 82.7382,359.1882 C81.7052,360.4532 81.1922,362.2292 81.1922,364.5112 C81.1922,366.8002 81.7052,368.5832 82.7382,369.8522 C83.7732,371.1172 85.2262,371.7592 87.1112,371.7592 C88.9862,371.7592 90.4442,371.1242 91.4862,369.8662" id="Fill-72"></path>
            <path d="M111.1465,356.2656 C111.2665,356.3956 111.3225,356.5796 111.3225,356.8206 L111.3225,372.2346 C111.3225,372.4496 111.2595,372.6346 111.1345,372.7766 C111.0075,372.9186 110.8375,372.9926 110.6155,372.9926 C110.3755,372.9926 110.1605,372.8696 109.9705,372.6346 L99.6075,358.6396 L99.6075,372.2346 C99.6075,372.4496 99.5445,372.6346 99.4175,372.7766 C99.2925,372.9186 99.1285,372.9926 98.9185,372.9926 C98.6845,372.9926 98.5075,372.9186 98.4005,372.7886 C98.2875,372.6546 98.2385,372.4676 98.2385,372.2346 L98.2385,356.8206 C98.2385,356.5986 98.2985,356.4196 98.4315,356.2776 C98.5645,356.1296 98.7545,356.0626 98.9905,356.0626 C99.2405,356.0626 99.4495,356.1856 99.6075,356.4196 L109.9535,370.3896 L109.9535,356.8206 C109.9535,356.5986 110.0135,356.4196 110.1415,356.2776 C110.2675,356.1296 110.4335,356.0626 110.6345,356.0626 C110.8565,356.0626 111.0265,356.1296 111.1465,356.2656" id="Fill-74"></path>
            <path d="M115.8555,372.6591 C115.7055,372.5171 115.6265,372.3441 115.6265,372.1351 L115.6265,356.9131 C115.6265,356.7161 115.7055,356.5361 115.8555,356.3951 C116.0075,356.2541 116.1915,356.1851 116.4105,356.1851 L121.0025,356.1851 C123.6365,356.1851 125.6775,356.9001 127.1245,358.3381 C128.5705,359.7681 129.2895,361.8351 129.2895,364.5121 C129.2895,367.1951 128.5705,369.2611 127.1245,370.7041 C125.6775,372.1471 123.6365,372.8691 121.0025,372.8691 L116.4105,372.8691 C116.1915,372.8691 116.0075,372.8021 115.8555,372.6591 Z M120.9345,371.5921 C125.4805,371.5921 127.7505,369.2301 127.7505,364.5121 C127.7505,359.8111 125.4805,357.4551 120.9345,357.4551 L117.1015,357.4551 L117.1015,371.5921 L120.9345,371.5921 Z" id="Fill-76"></path>
            <path d="M135.7803,372.0302 C134.6543,371.3402 133.7953,370.3582 133.1953,369.0692 C132.5943,367.7872 132.2993,366.2752 132.2993,364.5362 C132.2993,362.7852 132.5943,361.2662 133.1953,359.9782 C133.7953,358.6952 134.6543,357.7032 135.7653,357.0242 C136.8793,356.3332 138.1983,355.9942 139.7343,355.9942 C141.2603,355.9942 142.5863,356.3332 143.7063,357.0242 C144.8283,357.7032 145.6893,358.6892 146.2873,359.9722 C146.8883,361.2492 147.1843,362.7652 147.1843,364.5112 C147.1843,366.2632 146.8883,367.7872 146.2873,369.0692 C145.6893,370.3582 144.8283,371.3402 143.7063,372.0302 C142.5863,372.7152 141.2603,373.0602 139.7343,373.0602 C138.2173,373.0602 136.8963,372.7152 135.7803,372.0302 M144.1103,369.8662 C145.1523,368.6012 145.6703,366.8182 145.6703,364.5112 C145.6703,362.2122 145.1523,360.4282 144.1223,359.1762 C143.0863,357.9192 141.6273,357.2952 139.7343,357.2952 C137.8493,357.2952 136.3973,357.9252 135.3613,359.1882 C134.3283,360.4532 133.8163,362.2292 133.8163,364.5112 C133.8163,366.8002 134.3283,368.5832 135.3613,369.8522 C136.3973,371.1172 137.8493,371.7592 139.7343,371.7592 C141.6093,371.7592 143.0673,371.1242 144.1103,369.8662" id="Fill-78"></path>
            <path d="M152.6172,372.5049 C151.5392,372.1289 150.6872,371.6299 150.0742,370.9999 C149.8712,370.8269 149.7652,370.5929 149.7652,370.3099 C149.7652,370.1429 149.8222,369.9879 149.9232,369.8659 C150.0252,369.7359 150.1372,369.6749 150.2632,369.6749 C150.4242,369.6749 150.6052,369.7539 150.8082,369.9149 C152.2922,371.1489 154.0212,371.7589 155.9922,371.7589 C157.4262,371.7589 158.5352,371.4749 159.3202,370.8959 C160.0962,370.3159 160.4882,369.5009 160.4882,368.4419 C160.4882,367.8299 160.3002,367.3299 159.9222,366.9539 C159.5412,366.5709 159.0602,366.2759 158.4802,366.0669 C157.8912,365.8499 157.1082,365.6339 156.1372,365.4129 C154.8422,365.1339 153.7932,364.8389 152.9972,364.5359 C152.2012,364.2339 151.5272,363.7909 150.9772,363.1739 C150.4242,362.5689 150.1442,361.7549 150.1442,360.7309 C150.1442,359.7939 150.3942,358.9669 150.8882,358.2579 C151.3882,357.5359 152.0882,356.9809 152.9852,356.5799 C153.8882,356.1919 154.9192,355.9939 156.0882,355.9939 C157.1792,355.9939 158.2032,356.1729 159.1622,356.5249 C160.1272,356.8759 160.9242,357.3889 161.5552,358.0539 C161.7592,358.2579 161.8672,358.4859 161.8672,358.7379 C161.8672,358.9119 161.8142,359.0659 161.7072,359.1889 C161.6072,359.3179 161.4942,359.3799 161.3672,359.3799 C161.2102,359.3799 161.0252,359.2939 160.8242,359.1399 C159.9712,358.4419 159.1992,357.9619 158.5112,357.6899 C157.8302,357.4249 157.0152,357.2949 156.0882,357.2949 C154.6852,357.2949 153.5862,357.5909 152.7972,358.1899 C152.0082,358.7939 151.6152,359.6329 151.6152,360.7059 C151.6152,361.3479 151.7852,361.8719 152.1342,362.2779 C152.4792,362.6809 152.9352,363.0019 153.4982,363.2349 C154.0532,363.4699 154.7802,363.6969 155.6622,363.9199 L156.2752,364.0669 C157.5532,364.3819 158.5702,364.6719 159.3062,364.9429 C160.0482,365.2089 160.6802,365.6279 161.1882,366.1839 C161.7002,366.7439 161.9592,367.4979 161.9592,368.4419 C161.9592,369.3469 161.7072,370.1429 161.2102,370.8459 C160.7172,371.5499 160.0152,372.0929 159.1072,372.4809 C158.1972,372.8689 157.1622,373.0609 155.9922,373.0609 C154.8232,373.0609 153.7012,372.8749 152.6172,372.5049" id="Fill-80"></path>
            <path d="M177.085,372.3017 C177.085,372.4747 177.018,372.6287 176.885,372.7637 C176.752,372.8937 176.596,372.9677 176.423,372.9677 C176.283,372.9677 176.133,372.8997 175.976,372.7767 L166.695,364.8947 L166.695,372.2347 C166.695,372.4557 166.629,372.6287 166.489,372.7767 C166.357,372.9187 166.178,372.9917 165.959,372.9917 C165.737,372.9917 165.562,372.9187 165.428,372.7767 C165.295,372.6287 165.226,372.4557 165.226,372.2347 L165.226,356.8207 C165.226,356.6057 165.295,356.4197 165.428,356.2717 C165.562,356.1357 165.737,356.0627 165.959,356.0627 C166.178,356.0627 166.357,356.1357 166.489,356.2717 C166.629,356.4197 166.695,356.6057 166.695,356.8207 L166.695,363.9447 L175.5,356.2717 C175.627,356.1487 175.772,356.0927 175.951,356.0927 C176.12,356.0927 176.283,356.1557 176.423,356.2847 C176.561,356.4257 176.639,356.5737 176.639,356.7527 C176.639,356.9387 176.549,357.1107 176.373,357.2707 L168.137,364.3447 L176.82,371.7777 C177,371.9377 177.085,372.1107 177.085,372.3017" id="Fill-82"></path>
            <path d="M181.8691,372.0302 C180.7461,371.3402 179.8871,370.3582 179.2851,369.0692 C178.6861,367.7872 178.3901,366.2752 178.3901,364.5362 C178.3901,362.7852 178.6861,361.2662 179.2851,359.9782 C179.8871,358.6952 180.7461,357.7032 181.8551,357.0242 C182.9671,356.3332 184.2871,355.9942 185.8221,355.9942 C187.3511,355.9942 188.6791,356.3332 189.7951,357.0242 C190.9211,357.7032 191.7771,358.6892 192.3781,359.9722 C192.9771,361.2492 193.2751,362.7652 193.2751,364.5112 C193.2751,366.2632 192.9771,367.7872 192.3781,369.0692 C191.7771,370.3582 190.9211,371.3402 189.7951,372.0302 C188.6791,372.7152 187.3511,373.0602 185.8221,373.0602 C184.3081,373.0602 182.9881,372.7152 181.8691,372.0302 M190.1981,369.8662 C191.2401,368.6012 191.7591,366.8182 191.7591,364.5112 C191.7591,362.2122 191.2401,360.4282 190.2111,359.1762 C189.1781,357.9192 187.7191,357.2952 185.8221,357.2952 C183.9411,357.2952 182.4881,357.9252 181.4531,359.1882 C180.4161,360.4532 179.9041,362.2292 179.9041,364.5112 C179.9041,366.8002 180.4161,368.5832 181.4531,369.8522 C182.4881,371.1172 183.9411,371.7592 185.8221,371.7592 C187.6971,371.7592 189.1561,371.1242 190.1981,369.8662" id="Fill-84"></path>
            <path d="M197.1738,372.6591 C197.0198,372.5171 196.9458,372.3441 196.9458,372.1351 L196.9458,356.9131 C196.9458,356.7161 197.0198,356.5361 197.1738,356.3951 C197.3218,356.2541 197.5068,356.1851 197.7298,356.1851 L202.3178,356.1851 C204.9518,356.1851 206.9928,356.9001 208.4358,358.3381 C209.8858,359.7681 210.6078,361.8351 210.6078,364.5121 C210.6078,367.1951 209.8858,369.2611 208.4358,370.7041 C206.9928,372.1471 204.9518,372.8691 202.3178,372.8691 L197.7298,372.8691 C197.5068,372.8691 197.3218,372.8021 197.1738,372.6591 Z M202.2498,371.5921 C206.7968,371.5921 209.0648,369.2301 209.0648,364.5121 C209.0648,359.8111 206.7968,357.4551 202.2498,357.4551 L198.4138,357.4551 L198.4138,371.5921 L202.2498,371.5921 Z" id="Fill-86"></path>
            <path d="M228.0254,372.375 C228.0254,372.549 227.9564,372.69 227.8094,372.814 C227.6734,372.931 227.5064,372.986 227.3164,372.986 C227.1924,372.986 227.0624,372.949 226.9524,372.869 C226.8344,372.789 226.7424,372.678 226.6804,372.542 L224.8794,368.422 L215.6904,368.422 L213.8704,372.542 C213.7284,372.844 213.5064,372.986 213.2104,372.986 C213.0184,372.986 212.8524,372.931 212.7224,372.814 C212.5874,372.69 212.5194,372.542 212.5194,372.351 C212.5194,372.234 212.5374,372.153 212.5684,372.093 L219.4824,356.562 C219.6254,356.21 219.8824,356.044 220.2664,356.044 C220.4324,356.044 220.5984,356.087 220.7474,356.179 C220.8954,356.277 221.0004,356.401 221.0674,356.562 L227.9564,372.093 C228.0054,372.185 228.0254,372.283 228.0254,372.375 Z M216.2384,367.146 L224.3114,367.146 L220.2914,357.979 L216.2384,367.146 Z M220.2664,354.878 C220.1484,354.878 220.0564,354.841 219.9634,354.761 C219.8774,354.686 219.8344,354.588 219.8344,354.477 C219.8344,354.366 219.8824,354.267 219.9814,354.174 L222.4194,351.448 C222.6404,351.208 222.8754,351.091 223.1224,351.091 C223.3314,351.091 223.5044,351.159 223.6454,351.294 C223.7944,351.423 223.8624,351.597 223.8624,351.807 C223.8624,352.059 223.7134,352.3 223.4124,352.534 L220.5494,354.785 C220.4634,354.847 220.3714,354.878 220.2664,354.878 Z" id="Fill-88"></path>
            <path d="M232.583,372.5049 C231.504,372.1289 230.652,371.6299 230.042,370.9999 C229.839,370.8269 229.727,370.5929 229.727,370.3099 C229.727,370.1429 229.789,369.9879 229.888,369.8659 C229.986,369.7359 230.104,369.6749 230.228,369.6749 C230.388,369.6749 230.572,369.7539 230.77,369.9149 C232.257,371.1489 233.989,371.7589 235.956,371.7589 C237.394,371.7589 238.504,371.4749 239.287,370.8959 C240.063,370.3159 240.453,369.5009 240.453,368.4419 C240.453,367.8299 240.263,367.3299 239.886,366.9539 C239.51,366.5709 239.028,366.2759 238.448,366.0669 C237.856,365.8499 237.073,365.6339 236.105,365.4129 C234.81,365.1339 233.761,364.8389 232.966,364.5359 C232.169,364.2339 231.491,363.7909 230.942,363.1739 C230.388,362.5689 230.11,361.7549 230.11,360.7309 C230.11,359.7939 230.363,358.9669 230.855,358.2579 C231.355,357.5359 232.053,356.9809 232.953,356.5799 C233.854,356.1919 234.884,355.9939 236.05,355.9939 C237.147,355.9939 238.164,356.1729 239.127,356.5249 C240.095,356.8759 240.891,357.3889 241.521,358.0539 C241.724,358.2579 241.828,358.4859 241.828,358.7379 C241.828,358.9119 241.779,359.0659 241.675,359.1889 C241.569,359.3179 241.458,359.3799 241.329,359.3799 C241.175,359.3799 240.99,359.2939 240.785,359.1399 C239.936,358.4419 239.164,357.9619 238.479,357.6899 C237.795,357.4249 236.979,357.2949 236.05,357.2949 C234.649,357.2949 233.552,357.5909 232.763,358.1899 C231.973,358.7939 231.578,359.6329 231.578,360.7059 C231.578,361.3479 231.75,361.8719 232.096,362.2779 C232.447,362.6809 232.897,363.0019 233.465,363.2349 C234.02,363.4699 234.741,363.6969 235.63,363.9199 L236.241,364.0669 C237.518,364.3819 238.535,364.6719 239.274,364.9429 C240.009,365.2089 240.645,365.6279 241.156,366.1839 C241.668,366.7439 241.928,367.4979 241.928,368.4419 C241.928,369.3469 241.675,370.1429 241.181,370.8459 C240.681,371.5499 239.979,372.0929 239.071,372.4809 C238.158,372.8689 237.129,373.0609 235.956,373.0609 C234.792,373.0609 233.662,372.8749 232.583,372.5049" id="Fill-90"></path>
            <path d="M256.5625,365.7334 C257.0935,366.4364 257.3595,367.3054 257.3595,368.3474 C257.3595,369.8164 256.8775,370.9384 255.9215,371.7154 C254.9715,372.4874 253.6215,372.8694 251.8635,372.8694 L245.9735,372.8694 C245.7505,372.8694 245.5595,372.8014 245.4175,372.6594 C245.2635,372.5174 245.1895,372.3434 245.1895,372.1344 L245.1895,356.9134 C245.1895,356.7154 245.2635,356.5364 245.4175,356.3954 C245.5595,356.2544 245.7505,356.1854 245.9735,356.1854 L251.6285,356.1854 C253.3365,356.1854 254.6515,356.5614 255.5765,357.3204 C256.5135,358.0794 256.9765,359.1584 256.9765,360.5574 C256.9765,361.4644 256.7485,362.2364 256.2795,362.8774 C255.8105,363.5304 255.1635,364.0054 254.3245,364.3274 C255.2875,364.5544 256.0325,365.0294 256.5625,365.7334 Z M246.6325,363.7534 L251.4135,363.7534 C252.7505,363.7534 253.7745,363.4814 254.4665,362.9264 C255.1635,362.3784 255.5075,361.5764 255.5075,360.5404 C255.5075,358.4674 254.1455,357.4314 251.4135,357.4314 L246.6325,357.4314 L246.6325,363.7534 Z M254.8785,370.8214 C255.5515,370.2914 255.8845,369.4834 255.8845,368.3974 C255.8845,366.1594 254.5155,365.0364 251.7705,365.0364 L246.6325,365.0364 L246.6325,371.6104 L251.7705,371.6104 C253.1705,371.6104 254.2135,371.3514 254.8785,370.8214 Z" id="Fill-92"></path>
            <path d="M274.9746,372.3691 C274.9746,372.5481 274.8936,372.6961 274.7576,372.8071 C274.6166,372.9311 274.4506,372.9921 274.2576,372.9921 C274.1286,372.9921 274.0116,372.9491 273.8886,372.8691 C273.7706,372.7891 273.6846,372.6841 273.6176,372.5361 L271.8226,368.4161 L262.6386,368.4161 L260.8126,372.5361 C260.6706,372.8391 260.4496,372.9921 260.1466,372.9921 C259.9546,372.9921 259.8006,372.9311 259.6596,372.8071 C259.5306,372.6961 259.4616,372.5361 259.4616,372.3501 C259.4616,372.2391 259.4806,372.1531 259.5106,372.0861 L266.4196,356.5561 C266.5666,356.2161 266.8266,356.0371 267.2026,356.0371 C267.3806,356.0371 267.5356,356.0931 267.6906,356.1791 C267.8376,356.2711 267.9496,356.4071 268.0096,356.5561 L274.8936,372.0861 C274.9436,372.1841 274.9746,372.2761 274.9746,372.3691 Z M263.1806,367.1451 L271.2486,367.1451 L267.2266,357.9791 L263.1806,367.1451 Z" id="Fill-94"></path>
            <path d="M290.7939,356.2656 C290.9109,356.3956 290.9669,356.5796 290.9669,356.8206 L290.9669,372.2346 C290.9669,372.4496 290.9049,372.6346 290.7809,372.7766 C290.6519,372.9186 290.4799,372.9926 290.2649,372.9926 C290.0229,372.9926 289.8079,372.8696 289.6159,372.6346 L279.2539,358.6396 L279.2539,372.2346 C279.2539,372.4496 279.1919,372.6346 279.0629,372.7766 C278.9399,372.9186 278.7729,372.9926 278.5639,372.9926 C278.3289,372.9926 278.1569,372.9186 278.0449,372.7886 C277.9349,372.6546 277.8789,372.4676 277.8789,372.2346 L277.8789,356.8206 C277.8789,356.5986 277.9459,356.4196 278.0759,356.2776 C278.2129,356.1296 278.4029,356.0626 278.6319,356.0626 C278.8839,356.0626 279.0939,356.1856 279.2539,356.4196 L289.5969,370.3896 L289.5969,356.8206 C289.5969,356.5986 289.6589,356.4196 289.7889,356.2776 C289.9119,356.1296 290.0789,356.0626 290.2819,356.0626 C290.5039,356.0626 290.6699,356.1296 290.7939,356.2656" id="Fill-96"></path>
            <path d="M304.0234,372.6591 C303.8764,372.5111 303.7944,372.3441 303.7944,372.1351 L303.7944,356.9131 C303.7944,356.7101 303.8764,356.5361 304.0234,356.3951 C304.1714,356.2541 304.3564,356.1791 304.5794,356.1791 L313.5774,356.1791 C313.7814,356.1791 313.9414,356.2401 314.0584,356.3451 C314.1824,356.4571 314.2384,356.6171 314.2384,356.8201 C314.2384,357.0061 314.1824,357.1591 314.0584,357.2641 C313.9414,357.3821 313.7814,357.4371 313.5774,357.4371 L305.2454,357.4371 L305.2454,363.7591 L313.1034,363.7591 C313.3124,363.7591 313.4664,363.8081 313.5894,363.9251 C313.7074,364.0311 313.7624,364.1911 313.7624,364.4001 C313.7624,364.5971 313.7074,364.7591 313.5894,364.8691 C313.4664,364.9801 313.3124,365.0361 313.1034,365.0361 L305.2454,365.0361 L305.2454,371.6171 L313.5774,371.6171 C313.7814,371.6171 313.9414,371.6661 314.0584,371.7711 C314.1824,371.8761 314.2384,372.0301 314.2384,372.2271 C314.2384,372.4371 314.1824,372.5971 314.0584,372.7021 C313.9414,372.8201 313.7814,372.8691 313.5774,372.8691 L304.5794,372.8691 C304.3564,372.8691 304.1714,372.7951 304.0234,372.6591 M309.2664,354.8781 C309.1554,354.8781 309.0564,354.8411 308.9704,354.7611 C308.8834,354.6861 308.8474,354.5881 308.8474,354.4761 C308.8474,354.3661 308.8904,354.2661 308.9824,354.1741 L311.4194,351.4481 C311.6404,351.2081 311.8754,351.0911 312.1344,351.0911 C312.3374,351.0911 312.5044,351.1591 312.6524,351.2941 C312.8004,351.4231 312.8684,351.5971 312.8684,351.8051 C312.8684,352.0581 312.7144,352.3001 312.4124,352.5341 L309.5504,354.7851 C309.4694,354.8471 309.3774,354.8781 309.2664,354.8781" id="Fill-98"></path>
            <path d="M317.7285,372.6777 C317.5805,372.5547 317.5005,372.3947 317.5005,372.2087 L317.5005,356.8207 C317.5005,356.5987 317.5745,356.4197 317.7045,356.2777 C317.8395,356.1357 318.0125,356.0627 318.2345,356.0627 C318.4755,356.0627 318.6605,356.1357 318.7835,356.2657 C318.9135,356.4017 318.9745,356.5797 318.9745,356.8207 L318.9745,371.5917 L327.0665,371.5917 C327.2695,371.5917 327.4365,371.6547 327.5535,371.7587 C327.6705,371.8697 327.7265,372.0247 327.7265,372.2347 C327.7265,372.4317 327.6705,372.5917 327.5535,372.7087 C327.4365,372.8147 327.2695,372.8687 327.0665,372.8687 L318.2585,372.8687 C318.0555,372.8687 317.8825,372.8077 317.7285,372.6777" id="Fill-100"></path>
            <path d="M332.1309,372.0302 C331.0139,371.3452 330.1569,370.3582 329.5589,369.0692 C328.9529,367.7872 328.6519,366.2692 328.6519,364.5422 C328.6519,362.7852 328.9529,361.2662 329.5589,359.9782 C330.1569,358.6892 331.0079,357.7092 332.1169,357.0242 C333.2399,356.3402 334.5599,355.9942 336.0839,355.9942 C337.6189,355.9942 338.9459,356.3402 340.0619,357.0242 C341.1849,357.7092 342.0409,358.6892 342.6469,359.9662 C343.2509,361.2492 343.5469,362.7602 343.5469,364.5182 C343.5469,366.2632 343.2509,367.7872 342.6469,369.0692 C342.0409,370.3582 341.1849,371.3452 340.0619,372.0302 C338.9459,372.7152 337.6189,373.0602 336.0839,373.0602 C334.5719,373.0602 333.2589,372.7152 332.1309,372.0302 M340.4689,369.8662 C341.5119,368.6012 342.0289,366.8182 342.0289,364.5182 C342.0289,362.2122 341.5119,360.4282 340.4809,359.1712 C339.4449,357.9252 337.9839,357.2952 336.0839,357.2952 C334.2089,357.2952 332.7529,357.9252 331.7229,359.1832 C330.6879,360.4482 330.1689,362.2292 330.1689,364.5182 C330.1689,366.8002 330.6879,368.5832 331.7229,369.8522 C332.7529,371.1242 334.2089,371.7592 336.0839,371.7592 C337.9719,371.7592 339.4279,371.1302 340.4689,369.8662 M334.7149,354.9022 C334.6219,354.9022 334.5349,354.8712 334.4739,354.8102 C334.4189,354.7422 334.3809,354.6562 334.3809,354.5512 C334.3809,354.4522 334.4009,354.3842 334.4309,354.3352 L335.8069,351.6152 C335.8999,351.4422 336.0099,351.3012 336.1389,351.2082 C336.2629,351.1152 336.3919,351.0732 336.5159,351.0732 C336.6759,351.0732 336.8119,351.1282 336.9289,351.2452 C337.0459,351.3692 337.1009,351.5162 337.1009,351.7082 C337.1009,351.8982 337.0269,352.0912 336.8669,352.3002 L335.0479,354.7122 C334.9539,354.8412 334.8449,354.9022 334.7149,354.9022 M337.4349,354.9022 C337.3419,354.9022 337.2689,354.8712 337.1999,354.8102 C337.1389,354.7422 337.1009,354.6562 337.1009,354.5512 C337.1009,354.4522 337.1199,354.3842 337.1519,354.3352 L338.5269,351.6152 C338.6189,351.4422 338.7299,351.3012 338.8599,351.2082 C338.9829,351.1152 339.1119,351.0732 339.2359,351.0732 C339.3959,351.0732 339.5319,351.1282 339.6489,351.2452 C339.7659,351.3692 339.8269,351.5162 339.8269,351.7082 C339.8269,351.8982 339.7469,352.0912 339.5929,352.3002 L337.7679,354.7122 C337.6749,354.8412 337.5649,354.9022 337.4349,354.9022" id="Fill-102"></path>
            <path d="M137.8369,402.5488 C137.9569,402.6648 138.0129,402.8198 138.0129,403.0108 L138.0129,409.2778 C138.0129,409.6908 137.8309,409.9748 137.4709,410.1338 C136.8249,410.4368 136.0359,410.6708 135.1139,410.8438 C134.1909,411.0168 133.2579,411.1038 132.3109,411.1038 C130.6859,411.1038 129.2859,410.7698 128.1059,410.0978 C126.9299,409.4248 126.0329,408.4448 125.4059,407.1608 C124.7889,405.8718 124.4719,404.3428 124.4719,402.5608 C124.4719,400.8028 124.7829,399.2908 125.3949,398.0148 C126.0139,396.7378 126.8989,395.7518 128.0459,395.0668 C129.2019,394.3828 130.5679,394.0428 132.1469,394.0428 C133.2519,394.0428 134.2809,394.2158 135.2459,394.5728 C136.2059,394.9248 136.9949,395.4308 137.6089,396.0968 C137.8179,396.2998 137.9179,396.5278 137.9179,396.7808 C137.9179,396.9598 137.8739,397.1088 137.7789,397.2318 C137.6859,397.3558 137.5659,397.4228 137.4219,397.4228 C137.2949,397.4228 137.1219,397.3428 136.9019,397.1828 C136.0659,396.4908 135.2899,396.0108 134.5839,395.7378 C133.8719,395.4738 133.0549,395.3378 132.1469,395.3378 C130.1899,395.3378 128.6779,395.9678 127.6109,397.2258 C126.5449,398.4718 126.0139,400.2538 126.0139,402.5608 C126.0139,404.9098 126.5509,406.7108 127.6229,407.9498 C128.6969,409.2028 130.2569,409.8198 132.3109,409.8198 C133.1009,409.8198 133.8769,409.7588 134.6429,409.6288 C135.4039,409.4858 136.0889,409.2958 136.6879,409.0488 L136.6879,403.6028 L132.8539,403.6028 C132.6329,403.6028 132.4619,403.5468 132.3419,403.4368 C132.2279,403.3248 132.1659,403.1708 132.1659,402.9798 C132.1659,402.7948 132.2279,402.6468 132.3419,402.5358 C132.4619,402.4248 132.6329,402.3688 132.8539,402.3688 L137.3749,402.3688 C137.5659,402.3688 137.7169,402.4248 137.8369,402.5488" id="Fill-104"></path>
            <path d="M152.7598,394.1289 C152.9328,394.1289 153.0838,394.1969 153.2098,394.3199 C153.3368,394.4489 153.3988,394.6049 153.3988,394.7959 C153.3988,394.9689 153.3438,395.1159 153.2348,395.2449 L147.3168,402.8689 L147.3168,410.2749 C147.3168,410.4979 147.2548,410.6779 147.1288,410.8189 C147.0028,410.9609 146.8228,411.0339 146.6058,411.0339 C146.3828,411.0339 146.2068,410.9609 146.0738,410.8189 C145.9418,410.6779 145.8708,410.4979 145.8708,410.2749 L145.8708,402.8189 L139.9778,395.2449 C139.8638,395.1159 139.8148,394.9689 139.8148,394.7959 C139.8148,394.6159 139.8788,394.4689 140.0028,394.3329 C140.1288,394.1969 140.2768,394.1289 140.4528,394.1289 C140.6588,394.1289 140.8318,394.2279 140.9768,394.4189 L146.6058,401.7029 L152.2418,394.4189 C152.3828,394.2279 152.5598,394.1289 152.7598,394.1289" id="Fill-106"></path>
            <path d="M155.9951,410.7021 C155.8411,410.5541 155.7671,410.3881 155.7671,410.1781 L155.7671,394.9551 C155.7671,394.7521 155.8411,394.5851 155.9951,394.4371 C156.1461,394.3031 156.3281,394.2221 156.5511,394.2221 L165.5431,394.2221 C165.7521,394.2221 165.9101,394.2831 166.0301,394.3941 C166.1501,394.5001 166.2051,394.6591 166.2051,394.8631 C166.2051,395.0541 166.1501,395.2021 166.0301,395.3191 C165.9101,395.4251 165.7521,395.4791 165.5431,395.4791 L157.2141,395.4791 L157.2141,401.8021 L165.0701,401.8021 C165.2771,401.8021 165.4341,401.8511 165.5551,401.9691 C165.6761,402.0731 165.7341,402.2331 165.7341,402.4431 C165.7341,402.6401 165.6761,402.8011 165.5551,402.9121 C165.4341,403.0231 165.2771,403.0791 165.0701,403.0791 L157.2141,403.0791 L157.2141,409.6591 L165.5431,409.6591 C165.7521,409.6591 165.9101,409.7091 166.0301,409.8131 C166.1501,409.9191 166.2051,410.0731 166.2051,410.2691 C166.2051,410.4801 166.1501,410.6401 166.0301,410.7511 C165.9101,410.8621 165.7521,410.9181 165.5431,410.9181 L156.5511,410.9181 C156.3281,410.9181 156.1461,410.8501 155.9951,410.7021" id="Fill-108"></path>
            <path d="M182.0908,410.4424 C182.0908,410.6154 182.0238,410.7574 181.8908,410.8804 C181.7578,410.9994 181.6008,411.0594 181.4278,411.0594 C181.1568,411.0594 180.9498,410.9294 180.7888,410.6774 L177.5878,405.5644 C177.1348,404.8374 176.6658,404.3424 176.1858,404.0714 C175.7008,403.8064 175.0378,403.6764 174.1838,403.6764 L170.9398,403.6764 L170.9398,410.2764 C170.9398,410.5174 170.8748,410.6964 170.7368,410.8314 C170.6038,410.9674 170.4278,411.0284 170.2048,411.0284 C169.9838,411.0284 169.8078,410.9674 169.6758,410.8314 C169.5428,410.6964 169.4718,410.5174 169.4718,410.2764 L169.4718,394.9554 C169.4718,394.7584 169.5488,394.5804 169.6998,394.4374 C169.8458,394.2954 170.0348,394.2274 170.2548,394.2274 L176.1488,394.2274 C177.8968,394.2274 179.2498,394.6224 180.1968,395.4194 C181.1448,396.2194 181.6188,397.3854 181.6188,398.9094 C181.6188,400.2594 181.2158,401.3214 180.4118,402.1104 C179.6018,402.8994 178.4668,403.3564 177.0018,403.4854 C177.3808,403.6084 177.7268,403.8184 178.0448,404.1084 C178.3598,404.3984 178.6798,404.8054 179.0158,405.3304 L181.9458,410.0424 C182.0408,410.1774 182.0908,410.3194 182.0908,410.4424 Z M176.0528,402.4194 C178.7998,402.4194 180.1718,401.2404 180.1718,398.8844 C180.1718,397.7384 179.8298,396.8854 179.1548,396.3254 C178.4808,395.7574 177.4438,395.4794 176.0528,395.4794 L170.9178,395.4794 L170.9178,402.4194 L176.0528,402.4194 Z" id="Fill-110"></path>
            <path d="M185.8437,410.7021 C185.6927,410.5541 185.6147,410.3881 185.6147,410.1781 L185.6147,394.9551 C185.6147,394.7521 185.6927,394.5851 185.8437,394.4371 C185.9947,394.3031 186.1807,394.2221 186.3997,394.2221 L195.3947,394.2221 C195.6017,394.2221 195.7577,394.2831 195.8787,394.3941 C195.9987,394.5001 196.0577,394.6591 196.0577,394.8631 C196.0577,395.0541 195.9987,395.2021 195.8787,395.3191 C195.7577,395.4251 195.6017,395.4791 195.3947,395.4791 L187.0617,395.4791 L187.0617,401.8021 L194.9197,401.8021 C195.1287,401.8021 195.2867,401.8511 195.4067,401.9691 C195.5277,402.0731 195.5827,402.2331 195.5827,402.4431 C195.5827,402.6401 195.5277,402.8011 195.4067,402.9121 C195.2867,403.0231 195.1287,403.0791 194.9197,403.0791 L187.0617,403.0791 L187.0617,409.6591 L195.3947,409.6591 C195.6017,409.6591 195.7577,409.7091 195.8787,409.8131 C195.9987,409.9191 196.0577,410.0731 196.0577,410.2691 C196.0577,410.4801 195.9987,410.6401 195.8787,410.7511 C195.7577,410.8621 195.6017,410.9181 195.3947,410.9181 L186.3997,410.9181 C186.1807,410.9181 185.9947,410.8501 185.8437,410.7021" id="Fill-112"></path>
            <path d="M211.1875,410.3437 C211.1875,410.5177 211.1125,410.6777 210.9835,410.8077 C210.8475,410.9437 210.6935,411.0107 210.5215,411.0107 C210.3785,411.0107 210.2315,410.9477 210.0705,410.8197 L200.7945,402.9367 L200.7945,410.2757 C200.7945,410.4977 200.7265,410.6777 200.5905,410.8197 C200.4555,410.9607 200.2765,411.0337 200.0545,411.0337 C199.8325,411.0337 199.6605,410.9607 199.5245,410.8197 C199.3945,410.6777 199.3215,410.4977 199.3215,410.2757 L199.3215,394.8687 C199.3215,394.6477 199.3945,394.4617 199.5245,394.3207 C199.6605,394.1787 199.8325,394.1117 200.0545,394.1117 C200.2765,394.1117 200.4555,394.1787 200.5905,394.3207 C200.7265,394.4617 200.7945,394.6477 200.7945,394.8687 L200.7945,401.9927 L209.5955,394.3207 C209.7255,394.1907 209.8745,394.1347 210.0455,394.1347 C210.2185,394.1347 210.3785,394.1977 210.5215,394.3327 C210.6635,394.4687 210.7375,394.6227 210.7375,394.7957 C210.7375,394.9797 210.6445,395.1587 210.4705,395.3137 L202.2385,402.3887 L210.9215,409.8197 C211.0935,409.9797 211.1875,410.1587 211.1875,410.3437" id="Fill-114"></path>
            <path d="M214.0615,410.7021 C213.9075,410.5541 213.8325,410.3881 213.8325,410.1781 L213.8325,394.9551 C213.8325,394.7521 213.9075,394.5851 214.0615,394.4371 C214.2085,394.3031 214.3945,394.2221 214.6165,394.2221 L223.6095,394.2221 C223.8185,394.2221 223.9725,394.2831 224.0965,394.3941 C224.2135,394.5001 224.2745,394.6591 224.2745,394.8631 C224.2745,395.0541 224.2135,395.2021 224.0965,395.3191 C223.9725,395.4251 223.8185,395.4791 223.6095,395.4791 L215.2765,395.4791 L215.2765,401.8021 L223.1345,401.8021 C223.3435,401.8021 223.5045,401.8511 223.6215,401.9691 C223.7445,402.0731 223.7995,402.2331 223.7995,402.4431 C223.7995,402.6401 223.7445,402.8011 223.6215,402.9121 C223.5045,403.0231 223.3435,403.0791 223.1345,403.0791 L215.2765,403.0791 L215.2765,409.6591 L223.6095,409.6591 C223.8185,409.6591 223.9725,409.7091 224.0965,409.8131 C224.2135,409.9191 224.2745,410.0731 224.2745,410.2691 C224.2745,410.4801 224.2135,410.6401 224.0965,410.7511 C223.9725,410.8621 223.8185,410.9181 223.6095,410.9181 L214.6165,410.9181 C214.3945,410.9181 214.2085,410.8501 214.0615,410.7021" id="Fill-116"></path>
            <path d="M239.3984,410.3437 C239.3984,410.5177 239.3304,410.6777 239.1944,410.8077 C239.0644,410.9437 238.9054,411.0107 238.7384,411.0107 C238.5964,411.0107 238.4494,410.9477 238.2894,410.8197 L229.0114,402.9367 L229.0114,410.2757 C229.0114,410.4977 228.9374,410.6777 228.8014,410.8197 C228.6664,410.9607 228.4944,411.0337 228.2714,411.0337 C228.0494,411.0337 227.8714,410.9607 227.7414,410.8197 C227.6064,410.6777 227.5384,410.4977 227.5384,410.2757 L227.5384,394.8687 C227.5384,394.6477 227.6064,394.4617 227.7414,394.3207 C227.8714,394.1787 228.0494,394.1117 228.2714,394.1117 C228.4944,394.1117 228.6664,394.1787 228.8014,394.3207 C228.9374,394.4617 229.0114,394.6477 229.0114,394.8687 L229.0114,401.9927 L237.8134,394.3207 C237.9424,394.1907 238.0854,394.1347 238.2634,394.1347 C238.4364,394.1347 238.5964,394.1977 238.7384,394.3327 C238.8744,394.4687 238.9544,394.6227 238.9544,394.7957 C238.9544,394.9797 238.8624,395.1587 238.6894,395.3137 L230.4494,402.3887 L239.1334,409.8197 C239.3124,409.9797 239.3984,410.1587 239.3984,410.3437" id="Fill-118"></path>
            <path d="M242.2725,410.7021 C242.1245,410.5591 242.0505,410.3881 242.0505,410.1781 L242.0505,394.9551 C242.0505,394.7591 242.1245,394.5801 242.2725,394.4371 C242.4195,394.2951 242.6115,394.2271 242.8345,394.2271 L251.8265,394.2271 C252.0355,394.2271 252.1905,394.2831 252.3135,394.3891 C252.4295,394.5061 252.4865,394.6591 252.4865,394.8631 C252.4865,395.0541 252.4295,395.2021 252.3135,395.3131 C252.1905,395.4251 252.0355,395.4791 251.8265,395.4791 L243.4935,395.4791 L243.4935,401.8021 L251.3515,401.8021 C251.5605,401.8021 251.7155,401.8571 251.8375,401.9691 C251.9555,402.0731 252.0115,402.2331 252.0115,402.4431 C252.0115,402.6461 251.9555,402.8011 251.8375,402.9181 C251.7155,403.0231 251.5605,403.0791 251.3515,403.0791 L243.4935,403.0791 L243.4935,409.6591 L251.8265,409.6591 C252.0355,409.6591 252.1905,409.7091 252.3135,409.8131 C252.4295,409.9191 252.4865,410.0731 252.4865,410.2751 C252.4865,410.4801 252.4295,410.6401 252.3135,410.7451 C252.1905,410.8621 252.0355,410.9121 251.8265,410.9121 L242.8345,410.9121 C242.6115,410.9121 242.4195,410.8441 242.2725,410.7021 M247.5145,392.9271 C247.4035,392.9271 247.3115,392.8901 247.2195,392.8031 C247.1325,392.7291 247.0955,392.6371 247.0955,392.5191 C247.0955,392.4141 247.1385,392.3091 247.2315,392.2171 L249.6735,389.4971 C249.8895,389.2571 250.1245,389.1331 250.3825,389.1331 C250.5855,389.1331 250.7595,389.2071 250.9005,389.3371 C251.0485,389.4731 251.1165,389.6391 251.1165,389.8481 C251.1165,390.1021 250.9625,390.3431 250.6615,390.5831 L247.7975,392.8281 C247.7185,392.8951 247.6265,392.9271 247.5145,392.9271" id="Fill-120"></path>
            <path d="M268.375,410.4424 C268.375,410.6154 268.306,410.7574 268.171,410.8804 C268.041,410.9994 267.881,411.0594 267.708,411.0594 C267.437,411.0594 267.227,410.9294 267.073,410.6774 L263.872,405.5644 C263.415,404.8374 262.947,404.3424 262.466,404.0714 C261.984,403.8064 261.318,403.6764 260.467,403.6764 L257.216,403.6764 L257.216,410.2764 C257.216,410.5174 257.154,410.6964 257.02,410.8314 C256.884,410.9674 256.711,411.0284 256.488,411.0284 C256.267,411.0284 256.088,410.9674 255.959,410.8314 C255.822,410.6964 255.756,410.5174 255.756,410.2764 L255.756,394.9554 C255.756,394.7584 255.829,394.5804 255.983,394.4374 C256.125,394.2954 256.316,394.2274 256.538,394.2274 L262.428,394.2274 C264.181,394.2274 265.531,394.6224 266.48,395.4194 C267.425,396.2194 267.899,397.3854 267.899,398.9094 C267.899,400.2594 267.499,401.3214 266.69,402.1104 C265.883,402.8994 264.748,403.3564 263.279,403.4854 C263.662,403.6084 264.007,403.8184 264.322,404.1084 C264.643,404.3984 264.963,404.8054 265.296,405.3304 L268.227,410.0424 C268.324,410.1774 268.375,410.3194 268.375,410.4424 Z M262.336,402.4194 C265.081,402.4194 266.456,401.2404 266.456,398.8844 C266.456,397.7384 266.111,396.8854 265.438,396.3254 C264.76,395.7574 263.724,395.4794 262.336,395.4794 L257.198,395.4794 L257.198,402.4194 L262.336,402.4194 Z" id="Fill-122"></path>
            <path d="M275.7324,410.8193 C275.6094,410.6773 275.5474,410.4983 275.5474,410.2763 L275.5474,395.5053 L270.0764,395.5053 C269.8734,395.5053 269.7124,395.4483 269.5894,395.3393 C269.4724,395.2273 269.4104,395.0673 269.4104,394.8633 C269.4104,394.6593 269.4724,394.5003 269.5894,394.3943 C269.7124,394.2773 269.8734,394.2213 270.0764,394.2213 L282.4364,394.2213 C282.6284,394.2213 282.7824,394.2843 282.9124,394.4073 C283.0354,394.5243 283.0964,394.6783 283.0964,394.8633 C283.0964,395.0533 283.0354,395.2093 282.9124,395.3263 C282.7824,395.4483 282.6284,395.5053 282.4364,395.5053 L276.9904,395.5053 L276.9904,410.2763 C276.9904,410.4983 276.9224,410.6773 276.7874,410.8193 C276.6514,410.9673 276.4724,411.0343 276.2514,411.0343 C276.0344,411.0343 275.8624,410.9673 275.7324,410.8193" id="Fill-124"></path>
        </g>
    </g>
</svg>